<svg width="19" height="25" viewBox="0 0 19 25" fill="none" xmlns="http://www.w3.org/2000/svg">
<path fill-rule="evenodd" clip-rule="evenodd" d="M6.30303 15.1322C6.97821 15.1322 7.52887 14.5832 7.52887 13.9101C7.52887 13.237 6.97821 12.688 6.30303 12.688C5.62786 12.688 5.07715 13.237 5.07715 13.9101C5.07715 14.5832 5.62786 15.1322 6.30303 15.1322Z" stroke="#DCC681" stroke-miterlimit="22.9256" stroke-linecap="round" stroke-linejoin="round"/>
<path d="M6.30273 16.5599V15.3682" stroke="#DCC681" stroke-miterlimit="22.9256" stroke-linecap="round" stroke-linejoin="round"/>
<path d="M9.10254 5.03711H15.5263C16.4236 5.03711 17.1577 5.76904 17.1577 6.66357C17.1577 7.5581 16.4235 8.29003 15.5263 8.29003H9.10254" stroke="#DCC681" stroke-miterlimit="22.9256" stroke-linecap="round" stroke-linejoin="round"/>
<path d="M11.6055 8.52588V11.5128" stroke="#DCC681" stroke-miterlimit="22.9256" stroke-linecap="round" stroke-linejoin="round"/>
<path d="M9.37349 19.7689C9.18061 19.8107 8.98053 19.8328 8.77563 19.8328H3.82943C2.27328 19.8328 1 18.5634 1 17.0119V3.82085C1 2.26939 2.27323 1 3.82943 1H8.77563C10.3318 1 11.6051 2.26944 11.6051 3.82085V4.80082" stroke="#DCC681" stroke-miterlimit="22.9256" stroke-linecap="round" stroke-linejoin="round"/>
<path fill-rule="evenodd" clip-rule="evenodd" d="M6.17902 3.50098C4.4815 3.56276 3.13086 4.97102 3.13086 6.66337C3.13086 8.40514 4.55583 9.82576 6.30292 9.82576C8.05002 9.82576 9.47499 8.40514 9.47499 6.66337C9.47499 4.9216 8.05002 3.50098 6.30292 3.50098C6.26581 3.50098 6.21624 3.50098 6.17902 3.50098Z" stroke="#DCC681" stroke-miterlimit="22.9256" stroke-linecap="round" stroke-linejoin="round"/>
<path fill-rule="evenodd" clip-rule="evenodd" d="M13.7395 11.1475C11.4002 11.1475 9.47852 13.0634 9.47852 15.3955V19.9738C9.47852 22.3058 11.4002 24.2217 13.7395 24.2217C16.0788 24.2217 18.0004 22.306 18.0004 19.9738V15.3955C18.0004 13.0633 16.0788 11.1475 13.7395 11.1475Z" stroke="#DCC681" stroke-miterlimit="22.9256" stroke-linecap="round" stroke-linejoin="round"/>
<path d="M11.6084 15.3955C11.6084 14.2273 12.5671 13.2715 13.7389 13.2715C14.9107 13.2715 15.8694 14.2273 15.8694 15.3955V16.9531M15.8694 19.0771V19.9739C15.8694 21.1421 14.9107 22.0979 13.7389 22.0979" stroke="#DCC681" stroke-miterlimit="22.9256" stroke-linecap="round" stroke-linejoin="round"/>
<path d="M13.7389 15.3955V18.9158C13.7389 19.4996 13.2595 19.9779 12.6736 19.9779C12.0878 19.9779 11.6084 19.4999 11.6084 18.9158V17.5195" stroke="#DCC681" stroke-miterlimit="22.9256" stroke-linecap="round" stroke-linejoin="round"/>
</svg>
