<svg width="24" height="23" viewBox="0 0 24 23" fill="none" xmlns="http://www.w3.org/2000/svg">
<path d="M6.20426 1H11.9876V22.4339H1.39507C1.17689 22.4339 1 22.257 1 22.0388V1.39507C1 1.17689 1.17689 1 1.39507 1H4.65501" stroke="#DCC681" stroke-miterlimit="10" stroke-linecap="round" stroke-linejoin="round"/>
<path d="M2.72656 20.3127V3.12163C2.72656 2.90345 2.90345 2.72656 3.12163 2.72656H9.86647C10.0847 2.72656 10.2615 2.90345 10.2615 3.12163V20.3127C10.2615 20.5309 10.0847 20.7078 9.86647 20.7078H3.12159C2.9034 20.7077 2.72656 20.5309 2.72656 20.3127Z" stroke="#DCC681" stroke-miterlimit="10" stroke-linecap="round" stroke-linejoin="round"/>
<path d="M22.6053 22.4339H12.0127V1H22.6053C22.8235 1 23.0004 1.17689 23.0004 1.39507V22.0389C23.0004 22.2571 22.8235 22.4339 22.6053 22.4339Z" stroke="#DCC681" stroke-miterlimit="10" stroke-linecap="round" stroke-linejoin="round"/>
<path d="M17.2096 20.7077H14.1334C13.9152 20.7077 13.7383 20.5309 13.7383 20.3127V3.12163C13.7383 2.90345 13.9152 2.72656 14.1334 2.72656H20.8782C21.0964 2.72656 21.2733 2.90345 21.2733 3.12163V20.3127C21.2733 20.5309 21.0964 20.7078 20.8782 20.7078H18.8032" stroke="#DCC681" stroke-miterlimit="10" stroke-linecap="round" stroke-linejoin="round"/>
<path d="M13.7383 14.5709V11.3745H14.4757C14.883 11.3745 15.2132 11.7047 15.2132 12.112V14.5709C15.2132 14.9782 14.883 15.3084 14.4757 15.3084C14.0685 15.3084 13.7383 14.9782 13.7383 14.5709Z" stroke="#DCC681" stroke-miterlimit="10" stroke-linecap="round" stroke-linejoin="round"/>
<path d="M8.78613 14.5709V12.112C8.78613 11.7047 9.11631 11.3745 9.5236 11.3745H10.2611V14.5709C10.2611 14.9782 9.93089 15.3084 9.5236 15.3084C9.11631 15.3084 8.78613 14.9782 8.78613 14.5709Z" stroke="#DCC681" stroke-miterlimit="10" stroke-linecap="round" stroke-linejoin="round"/>
</svg>
