<svg width="25" height="16" viewBox="0 0 25 16" fill="none" xmlns="http://www.w3.org/2000/svg">
<path d="M20.8814 12.2488C20.8206 10.0439 19.9003 8.03746 18.4309 6.57102H18.4308C16.8656 5.00973 14.7484 4.12244 12.5059 4.12244H12.5059C12.5055 4.12244 12.5051 4.12249 12.5046 4.12249C12.4428 4.12249 12.3812 4.12332 12.3197 4.12475C12.3216 4.12471 12.3237 4.12471 12.3257 4.12466C12.3066 4.12508 12.2875 4.12554 12.2684 4.12609C12.2802 4.12572 12.2922 4.12545 12.305 4.12508C12.2425 4.12665 12.1802 4.12886 12.1181 4.13168C12.1181 4.13168 12.1198 4.13159 12.1224 4.13145C10.0347 4.22616 8.06426 5.09114 6.58102 6.57098L6.58098 6.57102C5.01241 8.13633 4.18809 10.1814 4.13044 12.2492C4.12734 12.3603 4.03519 12.4482 3.92383 12.4482H9.48641C9.21947 10.9059 10.0814 9.25318 11.7639 8.73437L17.2026 7.05731C17.4278 6.98792 17.6389 7.19849 17.5693 7.42316L16.0126 12.4482H21.088C20.9765 12.4482 20.8845 12.36 20.8814 12.2488Z" stroke="#DCC681" stroke-miterlimit="10" stroke-linecap="round" stroke-linejoin="round"/>
<path d="M12.5055 4.12269C12.439 4.12269 12.3756 4.12371 12.3193 4.125C12.3812 4.12357 12.4433 4.12269 12.5055 4.12269Z" stroke="#DCC681" stroke-miterlimit="10" stroke-linecap="round" stroke-linejoin="round"/>
<path d="M12.3192 4.12517C12.3144 4.12526 12.3095 4.12535 12.3047 4.12549C12.3094 4.12535 12.3144 4.12526 12.3192 4.12517Z" stroke="#DCC681" stroke-miterlimit="10" stroke-linecap="round" stroke-linejoin="round"/>
<path d="M12.305 4.12523C12.1953 4.12796 12.1182 4.13184 12.1182 4.13184C12.1803 4.12902 12.2425 4.1268 12.305 4.12523Z" stroke="#DCC681" stroke-miterlimit="10" stroke-linecap="round" stroke-linejoin="round"/>
<path d="M20.6438 4.3634C18.4802 2.20551 15.5673 0.999998 12.5059 0.999998V4.12271C14.7484 4.12271 16.8656 5.01 18.4308 6.57129L19.631 5.37382L20.6438 4.3634Z" stroke="#DCC681" stroke-miterlimit="10" stroke-linecap="round" stroke-linejoin="round"/>
<path d="M4.36816 4.36317L6.5813 6.57129H6.58134V6.57124C8.1551 5.00109 10.2772 4.12271 12.5062 4.12271V0.999998C9.60717 0.999998 6.78828 2.0348 4.36816 4.36317Z" stroke="#DCC681" stroke-miterlimit="10" stroke-linecap="round" stroke-linejoin="round"/>
<path d="M1.00005 12.236C0.997593 12.3523 1.09057 12.4482 1.20708 12.4482H3.92391C4.03528 12.4482 4.12742 12.3603 4.13048 12.2492C4.18817 10.1815 5.01249 8.13637 6.58106 6.57102L4.36793 4.36295C2.28746 6.43866 1.06372 9.23831 1.00005 12.236Z" stroke="#DCC681" stroke-miterlimit="10" stroke-linecap="round" stroke-linejoin="round"/>
<path d="M20.6438 4.36295L18.4307 6.57102C19.9002 8.03751 20.8204 10.044 20.8812 12.2488C20.8843 12.36 20.9763 12.4482 21.0878 12.4482H23.8046C23.9211 12.4482 24.0142 12.3523 24.0117 12.2361C23.9492 9.31199 22.7734 6.48703 20.6438 4.36295Z" stroke="#DCC681" stroke-miterlimit="10" stroke-linecap="round" stroke-linejoin="round"/>
<path d="M13.8551 11.1118C13.8083 11.0452 13.7555 10.9815 13.6959 10.922C13.1433 10.3707 12.2473 10.3707 11.6947 10.922C11.1421 11.4733 11.1421 12.3672 11.6947 12.9185C12.2473 13.4699 13.1433 13.4699 13.6959 12.9185C13.7555 12.859 13.8083 12.7954 13.8551 12.7287" stroke="#DCC681" stroke-miterlimit="10" stroke-linecap="round" stroke-linejoin="round"/>
<path d="M13.5062 15.0776C14.5759 14.8218 15.5192 14.0425 15.8887 12.8497L17.5696 7.42343C17.6391 7.19876 17.4281 6.98819 17.2029 7.05763L11.7641 8.73464C9.39157 9.46624 8.65004 12.4528 10.406 14.2048C10.841 14.6387 11.3519 14.9196 11.8855 15.0609" stroke="#DCC681" stroke-miterlimit="10" stroke-linecap="round" stroke-linejoin="round"/>
</svg>
