<svg width="21" height="23" viewBox="0 0 21 23" fill="none" xmlns="http://www.w3.org/2000/svg">
<path d="M2.32236 11.2263H19.0722C19.8025 11.2263 20.3946 11.8183 20.3946 12.5486V16.9565H1V12.5486C1 11.8183 1.59206 11.2263 2.32236 11.2263Z" stroke="#DCC681" stroke-miterlimit="10" stroke-linecap="round" stroke-linejoin="round"/>
<path d="M18.631 11.2262V2.7631C17.2285 2.10324 14.4194 0.999954 10.6969 0.999954C6.97428 0.999954 4.16519 2.10324 2.7627 2.7631V11.2262" stroke="#DCC681" stroke-miterlimit="10" stroke-linecap="round" stroke-linejoin="round"/>
<path d="M1 19.6013H20.3946V16.9566H1V19.6013Z" stroke="#DCC681" stroke-miterlimit="10" stroke-linecap="round" stroke-linejoin="round"/>
<path d="M2.32227 19.6012H5.40777L4.5262 22.2459H2.32227V19.6012Z" stroke="#DCC681" stroke-miterlimit="10" stroke-linecap="round" stroke-linejoin="round"/>
<path d="M19.0718 19.6012H15.9863L16.8679 22.2459H19.0718V19.6012Z" stroke="#DCC681" stroke-miterlimit="10" stroke-linecap="round" stroke-linejoin="round"/>
<path d="M13.7828 7.69991H7.61178C6.63804 7.69991 5.84863 8.48927 5.84863 9.46305V11.2262H15.5459V9.46305C15.5459 8.48927 14.7566 7.69991 13.7828 7.69991Z" stroke="#DCC681" stroke-miterlimit="10" stroke-linecap="round" stroke-linejoin="round"/>
<path d="M2.7627 0.999977V2.76312" stroke="#DCC681" stroke-miterlimit="10" stroke-linecap="round" stroke-linejoin="round"/>
<path d="M18.6318 0.999977V2.76312" stroke="#DCC681" stroke-miterlimit="10" stroke-linecap="round" stroke-linejoin="round"/>
</svg>
