<svg width="23" height="26" viewBox="0 0 23 26" fill="none" xmlns="http://www.w3.org/2000/svg">
<path d="M10.9904 12.6323H7.4614C6.80258 12.6323 6.26851 13.1664 6.26851 13.8252C6.26851 14.484 6.80258 15.0181 7.4614 15.0181H18.9927C19.6515 15.0181 20.1855 14.484 20.1855 13.8252C20.1855 13.1664 19.6515 12.6323 18.9927 12.6323H15.4636" stroke="#DCC681" stroke-miterlimit="10" stroke-linecap="round" stroke-linejoin="round"/>
<path d="M7.26252 12.6323C7.26252 9.77744 9.57682 7.46314 12.4317 7.46314H14.0222C16.8771 7.46314 19.1914 9.77744 19.1914 12.6323" stroke="#DCC681" stroke-miterlimit="10" stroke-linecap="round" stroke-linejoin="round"/>
<path d="M1.00016 3.18881H10.0462C11.1973 3.18881 12.1338 4.12528 12.1338 5.27637" stroke="#DCC681" stroke-miterlimit="10" stroke-linecap="round" stroke-linejoin="round"/>
<path d="M14.3213 5.27637C14.3213 2.91942 12.4037 1.00185 10.0468 1.00185H1.00069" stroke="#DCC681" stroke-miterlimit="10" stroke-linecap="round" stroke-linejoin="round"/>
<path d="M11.6363 5.27642H14.8174V7.46338H11.6363V5.27642Z" stroke="#DCC681" stroke-miterlimit="10" stroke-linecap="round" stroke-linejoin="round"/>
<path d="M13.2275 25.4561V24.6359" stroke="#DCC681" stroke-linecap="round" stroke-linejoin="round"/>
<path d="M13.2275 22.1187V19.5619" stroke="#DCC681" stroke-linecap="round" stroke-linejoin="round" stroke-dasharray="34.82 67.53"/>
<path d="M13.2275 18.3032V17.4831" stroke="#DCC681" stroke-linecap="round" stroke-linejoin="round"/>
<path d="M17.999 25.4561L17.7639 24.6704" stroke="#DCC681" stroke-linecap="round" stroke-linejoin="round"/>
<path d="M17.002 22.1255L16.2286 19.5409" stroke="#DCC681" stroke-linecap="round" stroke-linejoin="round" stroke-dasharray="36.74 71.26"/>
<path d="M15.8486 18.2686L15.6135 17.4829" stroke="#DCC681" stroke-linecap="round" stroke-linejoin="round"/>
<path d="M8.45533 25.4561L8.69043 24.6704" stroke="#DCC681" stroke-linecap="round" stroke-linejoin="round"/>
<path d="M9.4522 22.1255L10.2256 19.5409" stroke="#DCC681" stroke-linecap="round" stroke-linejoin="round" stroke-dasharray="36.74 71.26"/>
<path d="M10.6067 18.2686L10.8418 17.4829" stroke="#DCC681" stroke-linecap="round" stroke-linejoin="round"/>
<path d="M4.45441 25.4561L4.82227 24.7231" stroke="#DCC681" stroke-linecap="round" stroke-linejoin="round"/>
<path d="M6.12014 22.1362L7.43848 19.5091" stroke="#DCC681" stroke-linecap="round" stroke-linejoin="round" stroke-dasharray="40.03 77.64"/>
<path d="M8.0882 18.2158L8.45605 17.4828" stroke="#DCC681" stroke-linecap="round" stroke-linejoin="round"/>
<path d="M22 25.4561L21.6321 24.7231" stroke="#DCC681" stroke-linecap="round" stroke-linejoin="round"/>
<path d="M20.334 22.1362L19.0156 19.5091" stroke="#DCC681" stroke-linecap="round" stroke-linejoin="round" stroke-dasharray="40.03 77.64"/>
<path d="M18.3672 18.2158L17.9993 17.4828" stroke="#DCC681" stroke-linecap="round" stroke-linejoin="round"/>
</svg>
