<svg width="26" height="22" viewBox="0 0 26 22" fill="none" xmlns="http://www.w3.org/2000/svg">
<path d="M22.1936 9.93562H3.87309C2.28634 9.93562 1 11.222 1 12.8087V20.3646C1 20.6398 1.22304 20.8628 1.49823 20.8628H2.32604C2.60119 20.8628 2.82433 20.6398 2.82433 20.3646V19.6651C2.82433 19.0859 3.29385 18.6163 3.87314 18.6163H22.1937C22.7729 18.6163 23.2424 19.0858 23.2424 19.6651V20.3646C23.2424 20.6398 23.4655 20.8628 23.7407 20.8628H24.5685C24.8437 20.8628 25.0667 20.6398 25.0667 20.3646V12.8087C25.0667 11.222 23.7804 9.93562 22.1936 9.93562Z" stroke="#DCC681" stroke-miterlimit="10" stroke-linecap="round" stroke-linejoin="round"/>
<path d="M2.47291 15.4902H1" stroke="#DCC681" stroke-miterlimit="10" stroke-linecap="round" stroke-linejoin="round"/>
<path d="M25.0666 15.4902H4.17969" stroke="#DCC681" stroke-miterlimit="10" stroke-linecap="round" stroke-linejoin="round"/>
<path d="M5.47852 9.93555V6.77147C5.47852 6.4249 5.75947 6.1439 6.10604 6.1439H10.4969C10.8435 6.1439 11.1245 6.4249 11.1245 6.77147V9.93555" stroke="#DCC681" stroke-miterlimit="10" stroke-linecap="round" stroke-linejoin="round"/>
<path d="M14.9424 7.19078V6.77147C14.9424 6.4249 15.2234 6.1439 15.57 6.1439H19.9608C20.3074 6.1439 20.5883 6.4249 20.5883 6.77147V9.93555" stroke="#DCC681" stroke-miterlimit="10" stroke-linecap="round" stroke-linejoin="round"/>
<path d="M14.9424 9.93555V8.88867" stroke="#DCC681" stroke-miterlimit="10" stroke-linecap="round" stroke-linejoin="round"/>
<path d="M23.731 10.3823V4.7216C23.731 4.15306 23.2701 3.69226 22.7016 3.69226H20.3603C19.3061 3.69226 18.2857 3.31842 17.4824 2.63579C16.2832 1.61685 14.73 1.00196 13.033 1.00196C11.336 1.00196 9.78282 1.61685 8.58359 2.63579C7.78029 3.31842 6.7599 3.69226 5.70576 3.69226H3.36436C2.79586 3.69226 2.33496 4.15306 2.33496 4.7216V10.3823" stroke="#DCC681" stroke-miterlimit="10" stroke-linecap="round" stroke-linejoin="round"/>
</svg>
