<svg width="23" height="29" viewBox="0 0 23 29" fill="none" xmlns="http://www.w3.org/2000/svg">
<path d="M6.6525 4.51221H1.82324V1.00002H6.6525V4.51221Z" stroke="#DCC681" stroke-miterlimit="10" stroke-linecap="round" stroke-linejoin="round"/>
<path d="M7.47559 4.51231H1V9.28213C2.00267 9.28213 2.81553 10.095 2.81553 11.0977H5.66007C5.66007 10.095 6.47292 9.28213 7.47559 9.28213V4.51231Z" stroke="#DCC681" stroke-miterlimit="10" stroke-linecap="round" stroke-linejoin="round"/>
<path d="M4.23828 1.1462V4.36572" stroke="#DCC681" stroke-miterlimit="10" stroke-linecap="round" stroke-linejoin="round"/>
<path d="M16.4209 25.7317H21.2502V27.0396C21.2502 27.57 20.8202 28 20.2898 28H17.3813C16.8509 28 16.4209 27.57 16.4209 27.0396V25.7317Z" stroke="#DCC681" stroke-miterlimit="10" stroke-linecap="round" stroke-linejoin="round"/>
<path d="M15.5977 25.7314H22.0733V19.7178C22.0733 18.715 21.2604 17.9022 20.2577 17.9022H17.4132C16.4105 17.9022 15.5977 18.715 15.5977 19.7178V25.7314Z" stroke="#DCC681" stroke-miterlimit="10" stroke-linecap="round" stroke-linejoin="round"/>
<path d="M12.6345 12.0339V8.21174C12.6345 6.80467 13.7792 5.65991 15.1863 5.65991C16.5935 5.65991 17.7382 6.80467 17.7382 8.21174V17.9024H19.9333V8.21174C19.9333 5.59428 17.8038 3.4648 15.1863 3.4648C12.5689 3.4648 10.4394 5.59428 10.4394 8.21174V20.7882C10.4394 22.1953 9.29469 23.34 7.88756 23.34C6.48044 23.34 5.33574 22.1953 5.33574 20.7882V11.0975H3.14062V20.7882C3.14062 23.4057 5.27011 25.5352 7.88756 25.5352C10.505 25.5352 12.6345 23.4057 12.6345 20.7882V16.9729" stroke="#DCC681" stroke-miterlimit="10" stroke-linecap="round" stroke-linejoin="round"/>
</svg>
