<svg width="26" height="26" viewBox="0 0 26 26" fill="none" xmlns="http://www.w3.org/2000/svg">
<path d="M21.0949 15.2614C19.9258 14.7803 18.5445 14.402 17.0215 14.1582" stroke="#DCC681" stroke-miterlimit="10" stroke-linecap="round" stroke-linejoin="round"/>
<path d="M8.97838 14.1582C4.32909 14.9024 1 16.9 1 19.248C1 22.2308 6.37257 24.649 13 24.649C19.6274 24.649 25 22.2308 25 19.248C25 18.0351 24.1116 16.9158 22.6119 16.0144" stroke="#DCC681" stroke-miterlimit="10" stroke-linecap="round" stroke-linejoin="round"/>
<path d="M10.181 16.5674C7.25346 16.963 5.17676 17.9564 5.17676 19.1195C5.17676 20.5304 8.2319 21.6916 12.1552 21.8389" stroke="#DCC681" stroke-miterlimit="10" stroke-linecap="round" stroke-linejoin="round"/>
<path d="M13.8447 21.8389C17.768 21.6916 20.8232 20.5303 20.8232 19.1195C20.8232 17.9564 18.7465 16.963 15.819 16.5674" stroke="#DCC681" stroke-miterlimit="10" stroke-linecap="round" stroke-linejoin="round"/>
<path d="M9.58789 19.1196C11.0461 19.1196 12.3184 18.2355 12.9997 16.9224C13.6809 18.2355 14.9532 19.1196 16.4114 19.1196" stroke="#DCC681" stroke-miterlimit="10" stroke-linecap="round" stroke-linejoin="round"/>
<path d="M11.1494 10.2476L10.8525 10.762C9.8982 12.4148 11.091 14.4808 12.9995 14.4808C14.908 14.4808 16.1008 12.4148 15.1466 10.762L13.125 7.26042C13.0692 7.16384 12.9298 7.16384 12.8741 7.26042L11.9945 8.78387" stroke="#DCC681" stroke-miterlimit="10" stroke-linecap="round" stroke-linejoin="round"/>
<path d="M13.0004 3.17847C13.6014 3.17847 14.0886 2.69124 14.0886 2.09021C14.0886 1.48918 13.6014 1.00195 13.0004 1.00195C12.3993 1.00195 11.9121 1.48918 11.9121 2.09021C11.9121 2.69124 12.3993 3.17847 13.0004 3.17847Z" stroke="#DCC681" stroke-miterlimit="10" stroke-linecap="round" stroke-linejoin="round"/>
<path d="M13 5.29604V5.00195" stroke="#DCC681" stroke-miterlimit="10" stroke-linecap="round" stroke-linejoin="round"/>
<path d="M16.4121 7.79627C16.4121 7.19525 16.8994 6.70801 17.5004 6.70801C18.1014 6.70801 18.5886 7.1952 18.5886 7.79627C18.5886 8.39728 18.1014 8.88452 17.5004 8.88452" stroke="#DCC681" stroke-miterlimit="10" stroke-linecap="round" stroke-linejoin="round"/>
<path d="M7.64685 12.1194C7.04584 12.1194 6.55859 11.6321 6.55859 11.0311C6.55859 10.4301 7.04584 9.94287 7.64685 9.94287C8.24787 9.94287 8.73511 10.4301 8.73511 11.0311" stroke="#DCC681" stroke-miterlimit="10" stroke-linecap="round" stroke-linejoin="round"/>
</svg>
