<svg width="23" height="24" viewBox="0 0 23 24" fill="none" xmlns="http://www.w3.org/2000/svg">
<path d="M22.2466 9.33274C22.2466 8.43157 21.7971 7.58976 21.0483 7.08844L13.1258 1.78446C12.2166 1.17573 11.0299 1.17573 10.1207 1.78446L2.19827 7.08844C1.44946 7.58976 1 8.43157 1 9.33274V22.5744" stroke="#DCC681" stroke-miterlimit="10" stroke-linecap="round" stroke-linejoin="round"/>
<path d="M22.2471 22.5744V13.8325" stroke="#DCC681" stroke-miterlimit="10" stroke-linecap="round" stroke-linejoin="round"/>
<path d="M17.8536 15.8915L16.1516 12.8182C15.6845 11.9825 14.7403 11.4559 13.7087 11.4559H9.53729C8.50652 11.4559 7.56294 11.9817 7.09538 12.8165L5.4043 15.8645" stroke="#DCC681" stroke-miterlimit="10" stroke-linecap="round" stroke-linejoin="round"/>
<path d="M16.2655 21.4561V22.5744H18.6459V21.224H4.60156V17.6887C4.60156 16.3596 5.78718 15.2822 7.24973 15.2822H15.9977C17.4603 15.2822 18.6459 16.3388 18.6459 17.6679V21.179" stroke="#DCC681" stroke-miterlimit="10" stroke-linecap="round" stroke-linejoin="round"/>
<path d="M6.98199 21.375V22.5744H4.60156V17.9735" stroke="#DCC681" stroke-miterlimit="10" stroke-linecap="round" stroke-linejoin="round"/>
<path d="M15.6299 18.6984C15.8509 18.6983 16.0303 18.519 16.0303 18.298C16.0302 18.077 15.8509 17.8977 15.6299 17.8976C15.4088 17.8976 15.2296 18.077 15.2295 18.298C15.2295 18.5191 15.4088 18.6984 15.6299 18.6984Z" stroke="#DCC681"/>
<path d="M7.57227 18.6984C7.79329 18.6983 7.97266 18.519 7.97266 18.298C7.9726 18.077 7.79326 17.8977 7.57227 17.8976C7.35122 17.8976 7.17194 18.077 7.17188 18.298C7.17188 18.5191 7.35118 18.6984 7.57227 18.6984Z" stroke="#DCC681"/>
</svg>
