<svg width="23" height="23" viewBox="0 0 23 23" fill="none" xmlns="http://www.w3.org/2000/svg">
<path d="M13.4172 14.9073V20.4355C13.4172 21.4293 12.6115 22.235 11.6176 22.235H2.79959C1.80572 22.235 1 21.4293 1 20.4355V11.6175C1 10.6236 1.80572 9.81787 2.79959 9.81787H8.32771" stroke="#DCC681" stroke-miterlimit="10" stroke-linecap="round" stroke-linejoin="round"/>
<path d="M6.21881 1H3.69939C2.20856 1 1 2.20856 1 3.69939V6.21881" stroke="#DCC681" stroke-miterlimit="10" stroke-linecap="round" stroke-linejoin="round"/>
<path d="M9.81836 1H13.4175" stroke="#DCC681" stroke-miterlimit="10" stroke-linecap="round" stroke-linejoin="round"/>
<path d="M17.0166 1H19.536C21.0269 1 22.2354 2.20856 22.2354 3.69939V6.21881" stroke="#DCC681" stroke-miterlimit="10" stroke-linecap="round" stroke-linejoin="round"/>
<path d="M22.2354 17.0164V19.5358C22.2354 21.0266 21.0269 22.2352 19.536 22.2352H17.0166" stroke="#DCC681" stroke-miterlimit="10" stroke-linecap="round" stroke-linejoin="round"/>
<path d="M22.2354 9.81787V13.4171" stroke="#DCC681" stroke-miterlimit="10" stroke-linecap="round" stroke-linejoin="round"/>
<path d="M6.74609 16.4892L18.1091 5.12622" stroke="#DCC681" stroke-miterlimit="10" stroke-linecap="round" stroke-linejoin="round"/>
<path d="M6.21875 14.317V17.0164H8.91814" stroke="#DCC681" stroke-miterlimit="10" stroke-linecap="round" stroke-linejoin="round"/>
<path d="M15.9365 4.59924H18.6359V7.29863" stroke="#DCC681" stroke-miterlimit="10" stroke-linecap="round" stroke-linejoin="round"/>
</svg>
