<svg width="26" height="26" viewBox="0 0 26 26" fill="none" xmlns="http://www.w3.org/2000/svg">
<path d="M25.0004 16.1094V20.0392C25.0004 20.3434 24.7537 20.5902 24.4495 20.5902H22.8945" stroke="#DCC681" stroke-miterlimit="10" stroke-linecap="round" stroke-linejoin="round"/>
<path d="M5.41016 3.0528V1.55099C5.41016 1.24676 5.65692 1 5.96114 1H24.4494C24.7536 1 25.0003 1.24676 25.0003 1.55099V14.4192" stroke="#DCC681" stroke-miterlimit="10" stroke-linecap="round" stroke-linejoin="round"/>
<path d="M11.6396 3.20459H22.2436C22.5478 3.20459 22.7946 3.45135 22.7946 3.75558V22.2438C22.7946 22.548 22.5478 22.7948 22.2436 22.7948H20.6713" stroke="#DCC681" stroke-miterlimit="10" stroke-linecap="round" stroke-linejoin="round"/>
<path d="M3.20508 5.31727V3.75558C3.20508 3.45135 3.45184 3.20459 3.75606 3.20459H9.95019" stroke="#DCC681" stroke-miterlimit="10" stroke-linecap="round" stroke-linejoin="round"/>
<path d="M20.0392 5.40967H1.55099C1.24676 5.40967 1 5.65643 1 5.96065V24.4489C1 24.7531 1.24676 24.9998 1.55099 24.9998H20.0392C20.3434 24.9998 20.5902 24.7531 20.5902 24.4489V5.96065C20.5902 5.65643 20.3434 5.40967 20.0392 5.40967Z" stroke="#DCC681" stroke-miterlimit="10" stroke-linecap="round" stroke-linejoin="round"/>
<path d="M6.1207 5.45264L1.04883 10.5728L3.81342 13.3852L5.91837 11.2802" stroke="#DCC681" stroke-miterlimit="10" stroke-linecap="round" stroke-linejoin="round"/>
<path d="M11.7259 5.47266L7.11328 10.0858" stroke="#DCC681" stroke-miterlimit="10" stroke-linecap="round" stroke-linejoin="round"/>
<path d="M3.75288 18.9511L1.09473 16.293" stroke="#DCC681" stroke-miterlimit="10" stroke-linecap="round" stroke-linejoin="round"/>
<path d="M18.2514 5.42139L20.5417 7.76006L17.7773 10.5728" stroke="#DCC681" stroke-miterlimit="10" stroke-linecap="round" stroke-linejoin="round"/>
<path d="M12.6368 5.43213L20.542 13.3856L17.7776 16.1983L9.44629 7.86704" stroke="#DCC681" stroke-miterlimit="10" stroke-linecap="round" stroke-linejoin="round"/>
<path d="M9.38867 13.435L12.1245 10.6992" stroke="#DCC681" stroke-miterlimit="10" stroke-linecap="round" stroke-linejoin="round"/>
<path d="M20.5422 19.0107L17.9033 21.6979" stroke="#DCC681" stroke-miterlimit="10" stroke-linecap="round" stroke-linejoin="round"/>
<path d="M1.48438 5.43213L3.7002 7.64795" stroke="#DCC681" stroke-miterlimit="10" stroke-linecap="round" stroke-linejoin="round"/>
<path d="M3.81327 13.3853L1.04883 16.198" stroke="#DCC681" stroke-miterlimit="10" stroke-linecap="round" stroke-linejoin="round"/>
<path d="M20.5417 19.011L17.7773 16.1982" stroke="#DCC681" stroke-miterlimit="10" stroke-linecap="round" stroke-linejoin="round"/>
<path d="M3.81327 24.6366L1.04883 21.8239L9.38933 13.4351L12.2021 16.2478L3.81327 24.6366Z" stroke="#DCC681" stroke-miterlimit="10" stroke-linecap="round" stroke-linejoin="round"/>
<path d="M12.1244 21.9502L9.18164 24.893" stroke="#DCC681" stroke-miterlimit="10" stroke-linecap="round" stroke-linejoin="round"/>
<path d="M20.5047 24.5506L15.4111 19.457" stroke="#DCC681" stroke-miterlimit="10" stroke-linecap="round" stroke-linejoin="round"/>
<path d="M14.2158 18.2622L12.2012 16.2476" stroke="#DCC681" stroke-miterlimit="10" stroke-linecap="round" stroke-linejoin="round"/>
<path d="M15.2642 24.9356L9.38867 19.0601" stroke="#DCC681" stroke-miterlimit="10" stroke-linecap="round" stroke-linejoin="round"/>
</svg>
