<svg width="24" height="27" viewBox="0 0 24 27" fill="none" xmlns="http://www.w3.org/2000/svg">
<path d="M22.7466 26.2876H1.52103C1.23327 26.2876 1 26.0543 1 25.7666V1.52295C1 1.23519 1.23327 1.00192 1.52103 1.00192H22.7466C23.0343 1.00192 23.2676 1.23519 23.2676 1.52295V25.7666C23.2676 26.0543 23.0343 26.2876 22.7466 26.2876Z" stroke="#DCC681" stroke-miterlimit="10" stroke-linecap="round" stroke-linejoin="round"/>
<path d="M19.6064 23.0664H21.145C21.3058 23.0664 21.4362 22.9361 21.4362 22.7752V13.5064" stroke="#DCC681" stroke-miterlimit="10" stroke-linecap="round" stroke-linejoin="round"/>
<path d="M2.83105 13.6448V22.7752C2.83105 22.9361 2.9614 23.0664 3.12222 23.0664H18.0795" stroke="#DCC681" stroke-miterlimit="10" stroke-linecap="round" stroke-linejoin="round"/>
<path d="M10.6953 13.5063C10.6919 16.6058 10.6919 19.6457 10.7041 22.7339" stroke="#DCC681" stroke-miterlimit="10" stroke-linecap="round" stroke-linejoin="round"/>
<path d="M13.0387 13.5063C13.0325 16.6058 13.0325 19.6457 13.0542 22.7339" stroke="#DCC681" stroke-miterlimit="10" stroke-linecap="round" stroke-linejoin="round"/>
<path d="M1.05078 13.292H23.1657" stroke="#DCC681" stroke-miterlimit="10" stroke-linecap="round" stroke-linejoin="round"/>
<path d="M9.63379 11.0059H23.1659" stroke="#DCC681" stroke-miterlimit="10" stroke-linecap="round" stroke-linejoin="round"/>
<path d="M1.05078 11.0059H8.10742" stroke="#DCC681" stroke-miterlimit="10" stroke-linecap="round" stroke-linejoin="round"/>
<path d="M1.05078 8.60107H23.1657" stroke="#DCC681" stroke-miterlimit="10" stroke-linecap="round" stroke-linejoin="round"/>
<path d="M1.05078 6.19629H23.1657" stroke="#DCC681" stroke-miterlimit="10" stroke-linecap="round" stroke-linejoin="round"/>
<path d="M1.05078 3.7915H23.1657" stroke="#DCC681" stroke-miterlimit="10" stroke-linecap="round" stroke-linejoin="round"/>
<path d="M4.22266 1.00198V13.292" stroke="#DCC681" stroke-miterlimit="10" stroke-linecap="round" stroke-linejoin="round"/>
<path d="M20.0449 1.00198V13.292" stroke="#DCC681" stroke-miterlimit="10" stroke-linecap="round" stroke-linejoin="round"/>
</svg>
