<svg width="24" height="20" viewBox="0 0 24 20" fill="none" xmlns="http://www.w3.org/2000/svg">
<path d="M20.8709 9.14485H22.6452C22.8411 9.14485 23 8.98635 23 8.79083V7.72877C23 6.94666 22.3645 6.31264 21.5807 6.31264H2.0645C1.47661 6.31264 1 6.78816 1 7.3747V19.0576H7.38713V11.269C7.38713 10.0959 8.3403 9.14485 9.51612 9.14485H19.4515" stroke="#DCC681" stroke-miterlimit="10" stroke-linecap="round" stroke-linejoin="round"/>
<path d="M5.96796 4.89648H7.03254C7.22851 4.89648 7.38738 4.73798 7.38738 4.54246V2.41829H14.1293C14.5213 2.41829 14.839 2.10128 14.839 1.71025C14.839 1.31918 14.5213 1.00221 14.1293 1.00221H3.12929C2.34544 1.00221 1.70996 1.63619 1.70996 2.41829V4.54246C1.70996 4.73798 1.86879 4.89648 2.06479 4.89648H4.5488" stroke="#DCC681" stroke-miterlimit="10" stroke-linecap="round" stroke-linejoin="round"/>
<path d="M6.67773 4.89642V6.3125" stroke="#DCC681" stroke-miterlimit="10" stroke-linecap="round" stroke-linejoin="round"/>
<path d="M2.41895 4.89642V6.3125" stroke="#DCC681" stroke-miterlimit="10" stroke-linecap="round" stroke-linejoin="round"/>
<path d="M18.7422 9.14491V10.207C18.7422 10.4025 18.9011 10.561 19.097 10.561H21.9357C22.1317 10.561 22.2906 10.4025 22.2906 10.207V9.14491" stroke="#DCC681" stroke-miterlimit="10" stroke-linecap="round" stroke-linejoin="round"/>
<path d="M20.5166 11.977V12.6851" stroke="#DCC681" stroke-miterlimit="10" stroke-linecap="round" stroke-linejoin="round"/>
<path d="M20.5166 16.2256V16.9336" stroke="#DCC681" stroke-miterlimit="10" stroke-linecap="round" stroke-linejoin="round"/>
<path d="M20.5166 14.1015V14.8096" stroke="#DCC681" stroke-miterlimit="10" stroke-linecap="round" stroke-linejoin="round"/>
<path d="M20.5166 18.3496V19.0576" stroke="#DCC681" stroke-miterlimit="10" stroke-linecap="round" stroke-linejoin="round"/>
<path d="M21.9355 11.9769L22.0041 12.6816" stroke="#DCC681" stroke-miterlimit="10" stroke-linecap="round" stroke-linejoin="round"/>
<path d="M22.3467 16.2054L22.4152 16.9102" stroke="#DCC681" stroke-miterlimit="10" stroke-linecap="round" stroke-linejoin="round"/>
<path d="M22.1416 14.0912L22.2101 14.7959" stroke="#DCC681" stroke-miterlimit="10" stroke-linecap="round" stroke-linejoin="round"/>
<path d="M22.5518 18.3196L22.6203 19.0244" stroke="#DCC681" stroke-miterlimit="10" stroke-linecap="round" stroke-linejoin="round"/>
<path d="M19.0968 11.9769L19.0283 12.6816" stroke="#DCC681" stroke-miterlimit="10" stroke-linecap="round" stroke-linejoin="round"/>
<path d="M18.6857 16.2054L18.6172 16.9102" stroke="#DCC681" stroke-miterlimit="10" stroke-linecap="round" stroke-linejoin="round"/>
<path d="M18.8908 14.0912L18.8223 14.7959" stroke="#DCC681" stroke-miterlimit="10" stroke-linecap="round" stroke-linejoin="round"/>
<path d="M18.4797 18.3196L18.4111 19.0244" stroke="#DCC681" stroke-miterlimit="10" stroke-linecap="round" stroke-linejoin="round"/>
</svg>
