<svg width="19" height="26" viewBox="0 0 19 26" fill="none" xmlns="http://www.w3.org/2000/svg">
<path d="M6.26465 9.9398L8.14719 11.8281L12.2888 7.67383" stroke="#DCC681" stroke-miterlimit="10" stroke-linecap="round" stroke-linejoin="round"/>
<path d="M9.49987 15.6997C12.8723 15.6997 15.6062 12.9574 15.6062 9.5747C15.6062 6.19196 12.8723 3.44971 9.49987 3.44971C6.12745 3.44971 3.39355 6.19196 3.39355 9.5747C3.39355 12.9574 6.12745 15.6997 9.49987 15.6997Z" stroke="#DCC681" stroke-miterlimit="10" stroke-linecap="round" stroke-linejoin="round"/>
<path d="M18 9.52599C18 4.8172 14.1944 1 9.5 1C4.80556 1 1 4.8172 1 9.52599C1 13.2342 3.36084 16.388 6.65663 17.5615L9.5 22.315L12.3434 17.5615C15.6392 16.3881 18 13.2343 18 9.52599Z" stroke="#DCC681" stroke-miterlimit="10" stroke-linecap="round" stroke-linejoin="round"/>
<path d="M10.513 20.6226C13.9453 20.7755 16.5837 21.6942 16.5837 22.8051C16.5837 24.0227 13.4123 25.01 9.50034 25.01C5.58838 25.01 2.41699 24.0227 2.41699 22.805C2.41699 21.6942 5.05539 20.7755 8.48765 20.6226" stroke="#DCC681" stroke-miterlimit="10" stroke-linecap="round" stroke-linejoin="round"/>
</svg>
