<svg width="24" height="20" viewBox="0 0 24 20" fill="none" xmlns="http://www.w3.org/2000/svg">
<path d="M21.8615 10.6924H2.38461C1.61994 10.6924 1 10.0724 1 9.30777V2.3847C1 1.62002 1.61994 1.00008 2.38461 1.00008H21.8615C22.6262 1.00008 23.2461 1.62002 23.2461 2.3847V9.30777C23.2461 10.0724 22.6262 10.6924 21.8615 10.6924Z" stroke="#DCC681" stroke-miterlimit="10" stroke-linecap="round" stroke-linejoin="round"/>
<path d="M3.76953 7.92334H20.4772" stroke="#DCC681" stroke-miterlimit="10" stroke-linecap="round" stroke-linejoin="round"/>
<path d="M17.708 5.34619C17.8142 5.34615 17.9004 5.25998 17.9004 5.15381C17.9003 5.04765 17.8142 4.96147 17.708 4.96143C17.6018 4.96143 17.5157 5.04762 17.5156 5.15381C17.5156 5.26 17.6018 5.34619 17.708 5.34619Z" stroke="#DCC681"/>
<path d="M20.4775 5.34619C20.5837 5.34615 20.6699 5.25998 20.6699 5.15381C20.6699 5.04765 20.5837 4.96147 20.4775 4.96143C20.3713 4.96143 20.2852 5.04762 20.2852 5.15381C20.2852 5.26 20.3713 5.34619 20.4775 5.34619Z" stroke="#DCC681"/>
<path d="M3.81543 19C5.51255 18.1514 6.58466 16.4168 6.58466 14.5193V13.4615" stroke="#DCC681" stroke-miterlimit="10" stroke-linecap="round" stroke-linejoin="round"/>
<path d="M17.6621 13.4615V14.5193C17.6621 16.4168 18.7342 18.1514 20.4313 19" stroke="#DCC681" stroke-miterlimit="10" stroke-linecap="round" stroke-linejoin="round"/>
<path d="M12.123 13.4615V19" stroke="#DCC681" stroke-miterlimit="10" stroke-linecap="round" stroke-linejoin="round"/>
<path d="M14.8926 13.4615V19" stroke="#DCC681" stroke-miterlimit="10" stroke-linecap="round" stroke-linejoin="round"/>
<path d="M9.35352 13.4615V19" stroke="#DCC681" stroke-miterlimit="10" stroke-linecap="round" stroke-linejoin="round"/>
</svg>
