<svg width="25" height="25" viewBox="0 0 25 25" fill="none" xmlns="http://www.w3.org/2000/svg">
<path d="M3.81641 12.5H11.3266" stroke="#DCC681" stroke-miterlimit="10" stroke-linecap="round" stroke-linejoin="round"/>
<path d="M23.0612 24.0001H1.93878C1.42029 24.0001 1 23.5798 1 23.0613C1 22.5428 1.42029 22.1226 1.93878 22.1226H23.0612C23.5797 22.1226 24 22.5428 24 23.0613C24 23.5798 23.5797 24.0001 23.0612 24.0001Z" stroke="#DCC681" stroke-miterlimit="10" stroke-linecap="round" stroke-linejoin="round"/>
<path d="M1.93945 22.1224V2.40816C1.93945 1.63043 2.56989 1 3.34762 1H21.6537C22.4315 1 23.0619 1.63043 23.0619 2.40816V22.1224" stroke="#DCC681" stroke-miterlimit="10" stroke-linecap="round" stroke-linejoin="round"/>
<path d="M3.81641 2.87744L11.3266 5.69377V19.306L3.81641 22.1223V2.87744ZM3.81641 2.87744H21.1838V22.1223" stroke="#DCC681" stroke-miterlimit="10" stroke-linecap="round" stroke-linejoin="round"/>
<path d="M7.57129 20.7142V4.28564" stroke="#DCC681" stroke-miterlimit="10" stroke-linecap="round" stroke-linejoin="round"/>
<path d="M21.184 12.5H13.6738" stroke="#DCC681" stroke-miterlimit="10" stroke-linecap="round" stroke-linejoin="round"/>
<path d="M21.184 2.87744L13.6738 5.69377V19.306L21.184 22.1223" stroke="#DCC681" stroke-miterlimit="10" stroke-linecap="round" stroke-linejoin="round"/>
<path d="M17.4287 4.28564V20.7142" stroke="#DCC681" stroke-miterlimit="10" stroke-linecap="round" stroke-linejoin="round"/>
</svg>
