<svg width="28" height="23" viewBox="0 0 28 23" fill="none" xmlns="http://www.w3.org/2000/svg">
<path d="M23.6716 10.5567H4.07346C2.37604 10.5567 1 11.9327 1 13.6302V21.7129C1 22.0073 1.2386 22.2459 1.53298 22.2459H2.41852C2.71285 22.2459 2.95155 22.0073 2.95155 21.7129V20.9647C2.95155 20.3451 3.45381 19.8428 4.07351 19.8428H23.6717C24.2913 19.8428 24.7936 20.345 24.7936 20.9647V21.7129C24.7936 22.0073 25.0323 22.2459 25.3266 22.2459H26.2121C26.5065 22.2459 26.7451 22.0073 26.7451 21.7129V13.6302C26.7451 11.9327 25.3691 10.5567 23.6716 10.5567Z" stroke="#DCC681" stroke-miterlimit="10" stroke-linecap="round" stroke-linejoin="round"/>
<path d="M2.57563 16.4987H1" stroke="#DCC681" stroke-miterlimit="10" stroke-linecap="round" stroke-linejoin="round"/>
<path d="M26.7449 16.4987H4.40137" stroke="#DCC681" stroke-miterlimit="10" stroke-linecap="round" stroke-linejoin="round"/>
<path d="M5.79102 10.5567V7.17197C5.79102 6.80123 6.09157 6.50063 6.46231 6.50063H11.1594C11.5301 6.50063 11.8307 6.80123 11.8307 7.17197V10.5567" stroke="#DCC681" stroke-miterlimit="10" stroke-linecap="round" stroke-linejoin="round"/>
<path d="M15.9141 7.62052V7.17197C15.9141 6.80123 16.2147 6.50063 16.5854 6.50063H21.2825C21.6532 6.50063 21.9538 6.80123 21.9538 7.17197V10.5567" stroke="#DCC681" stroke-miterlimit="10" stroke-linecap="round" stroke-linejoin="round"/>
<path d="M15.9141 10.5567V9.43682" stroke="#DCC681" stroke-miterlimit="10" stroke-linecap="round" stroke-linejoin="round"/>
<path d="M25.3169 11.0345V4.97906C25.3169 4.37086 24.8238 3.87792 24.2157 3.87792H21.7111C20.5834 3.87792 19.4919 3.47802 18.6325 2.74778C17.3496 1.65778 15.6881 1.00001 13.8728 1.00001C12.0575 1.00001 10.396 1.65778 9.11311 2.74778C8.25379 3.47802 7.16224 3.87792 6.03458 3.87792H3.5299C2.92175 3.87792 2.42871 4.37086 2.42871 4.97906V11.0345" stroke="#DCC681" stroke-miterlimit="10" stroke-linecap="round" stroke-linejoin="round"/>
</svg>
