<svg width="25" height="25" viewBox="0 0 25 25" fill="none" xmlns="http://www.w3.org/2000/svg">
<path d="M24 7.79125V3.77666C24 2.24316 22.7568 1 21.2233 1H3.77666C2.24316 1 1 2.24316 1 3.77666V21.2233C1 22.7568 2.24316 24 3.77666 24H21.2233C22.7568 24 24 22.7568 24 21.2233V9.17958" stroke="#DCC681" stroke-miterlimit="10" stroke-linecap="round" stroke-linejoin="round"/>
<path d="M19.8351 7.46489C19.8351 6.96139 19.4269 6.55322 18.9234 6.55322C18.4199 6.55322 18.0117 6.96139 18.0117 7.46489" stroke="#DCC681" stroke-miterlimit="10" stroke-linecap="round" stroke-linejoin="round"/>
<path d="M18.0117 6.07671V10.8942C18.0117 11.3977 18.4199 11.8059 18.9234 11.8059C19.4269 11.8059 19.8351 11.3977 19.8351 10.8942V6.07671C19.8351 5.57321 19.4269 5.16504 18.9234 5.16504C18.4199 5.16504 18.0117 5.57321 18.0117 6.07671Z" stroke="#DCC681" stroke-miterlimit="10" stroke-linecap="round" stroke-linejoin="round"/>
<path d="M19.8351 15.4942C19.8351 14.9907 19.4269 14.5825 18.9234 14.5825C18.4199 14.5825 18.0117 14.9907 18.0117 15.4942" stroke="#DCC681" stroke-miterlimit="10" stroke-linecap="round" stroke-linejoin="round"/>
<path d="M18.0117 14.106V18.9235C18.0117 19.427 18.4199 19.8352 18.9234 19.8352C19.4269 19.8352 19.8351 19.427 19.8351 18.9235V14.106C19.8351 13.6025 19.4269 13.1943 18.9234 13.1943C18.4199 13.1943 18.0117 13.6025 18.0117 14.106Z" stroke="#DCC681" stroke-miterlimit="10" stroke-linecap="round" stroke-linejoin="round"/>
<path d="M16.6231 7.46489C16.6231 6.96139 16.215 6.55322 15.7115 6.55322C15.208 6.55322 14.7998 6.96139 14.7998 7.46489" stroke="#DCC681" stroke-miterlimit="10" stroke-linecap="round" stroke-linejoin="round"/>
<path d="M14.7998 6.07671V10.8942C14.7998 11.3977 15.208 11.8059 15.7115 11.8059C16.215 11.8059 16.6231 11.3977 16.6231 10.8942V6.07671C16.6231 5.57321 16.215 5.16504 15.7115 5.16504C15.208 5.16504 14.7998 5.57321 14.7998 6.07671Z" stroke="#DCC681" stroke-miterlimit="10" stroke-linecap="round" stroke-linejoin="round"/>
<path d="M16.6231 15.4942C16.6231 14.9907 16.215 14.5825 15.7115 14.5825C15.208 14.5825 14.7998 14.9907 14.7998 15.4942" stroke="#DCC681" stroke-miterlimit="10" stroke-linecap="round" stroke-linejoin="round"/>
<path d="M14.7998 14.106V18.9235C14.7998 19.427 15.208 19.8352 15.7115 19.8352C16.215 19.8352 16.6231 19.427 16.6231 18.9235V14.106C16.6231 13.6025 16.215 13.1943 15.7115 13.1943C15.208 13.1943 14.7998 13.6025 14.7998 14.106Z" stroke="#DCC681" stroke-miterlimit="10" stroke-linecap="round" stroke-linejoin="round"/>
<path d="M13.4112 7.46489C13.4112 6.96139 13.0031 6.55322 12.4996 6.55322C11.9961 6.55322 11.5879 6.96139 11.5879 7.46489" stroke="#DCC681" stroke-miterlimit="10" stroke-linecap="round" stroke-linejoin="round"/>
<path d="M11.5879 6.07671V10.8942C11.5879 11.3977 11.9961 11.8059 12.4996 11.8059C13.0031 11.8059 13.4112 11.3977 13.4112 10.8942V6.07671C13.4112 5.57321 13.0031 5.16504 12.4996 5.16504C11.9961 5.16504 11.5879 5.57321 11.5879 6.07671Z" stroke="#DCC681" stroke-miterlimit="10" stroke-linecap="round" stroke-linejoin="round"/>
<path d="M13.4112 15.4942C13.4112 14.9907 13.0031 14.5825 12.4996 14.5825C11.9961 14.5825 11.5879 14.9907 11.5879 15.4942" stroke="#DCC681" stroke-miterlimit="10" stroke-linecap="round" stroke-linejoin="round"/>
<path d="M11.5879 14.106V18.9235C11.5879 19.427 11.9961 19.8352 12.4996 19.8352C13.0031 19.8352 13.4112 19.427 13.4112 18.9235V14.106C13.4112 13.6025 13.0031 13.1943 12.4996 13.1943C11.9961 13.1943 11.5879 13.6025 11.5879 14.106Z" stroke="#DCC681" stroke-miterlimit="10" stroke-linecap="round" stroke-linejoin="round"/>
<path d="M10.2003 7.46489C10.2003 6.96139 9.79212 6.55322 9.28862 6.55322C8.78512 6.55322 8.37695 6.96139 8.37695 7.46489" stroke="#DCC681" stroke-miterlimit="10" stroke-linecap="round" stroke-linejoin="round"/>
<path d="M8.37695 6.07671V10.8942C8.37695 11.3977 8.78512 11.8059 9.28862 11.8059C9.79212 11.8059 10.2003 11.3977 10.2003 10.8942V6.07671C10.2003 5.57321 9.79212 5.16504 9.28862 5.16504C8.78512 5.16504 8.37695 5.57321 8.37695 6.07671Z" stroke="#DCC681" stroke-miterlimit="10" stroke-linecap="round" stroke-linejoin="round"/>
<path d="M10.2003 15.4942C10.2003 14.9907 9.79212 14.5825 9.28862 14.5825C8.78512 14.5825 8.37695 14.9907 8.37695 15.4942" stroke="#DCC681" stroke-miterlimit="10" stroke-linecap="round" stroke-linejoin="round"/>
<path d="M8.37695 14.106V18.9235C8.37695 19.427 8.78512 19.8352 9.28862 19.8352C9.79212 19.8352 10.2003 19.427 10.2003 18.9235V14.106C10.2003 13.6025 9.79212 13.1943 9.28862 13.1943C8.78512 13.1943 8.37695 13.6025 8.37695 14.106Z" stroke="#DCC681" stroke-miterlimit="10" stroke-linecap="round" stroke-linejoin="round"/>
<path d="M6.98838 7.46489C6.98838 6.96139 6.58021 6.55322 6.07671 6.55322C5.57321 6.55322 5.16504 6.96139 5.16504 7.46489" stroke="#DCC681" stroke-miterlimit="10" stroke-linecap="round" stroke-linejoin="round"/>
<path d="M5.16504 6.07671V10.8942C5.16504 11.3977 5.57321 11.8059 6.07671 11.8059C6.58021 11.8059 6.98838 11.3977 6.98838 10.8942V6.07671C6.98838 5.57321 6.58021 5.16504 6.07671 5.16504C5.57321 5.16504 5.16504 5.57321 5.16504 6.07671Z" stroke="#DCC681" stroke-miterlimit="10" stroke-linecap="round" stroke-linejoin="round"/>
<path d="M6.98838 15.4942C6.98838 14.9907 6.58021 14.5825 6.07671 14.5825C5.57321 14.5825 5.16504 14.9907 5.16504 15.4942" stroke="#DCC681" stroke-miterlimit="10" stroke-linecap="round" stroke-linejoin="round"/>
<path d="M5.16504 14.106V18.9235C5.16504 19.427 5.57321 19.8352 6.07671 19.8352C6.58021 19.8352 6.98838 19.427 6.98838 18.9235V14.106C6.98838 13.6025 6.58021 13.1943 6.07671 13.1943C5.57321 13.1943 5.16504 13.6025 5.16504 14.106Z" stroke="#DCC681" stroke-miterlimit="10" stroke-linecap="round" stroke-linejoin="round"/>
</svg>
