<svg width="9" height="6" viewBox="0 0 9 6" fill="none" xmlns="http://www.w3.org/2000/svg">
<path d="M7.94652 3.25192H0.251907C0.112671 3.25192 0 3.13925 0 3.00001C0 2.86078 0.112671 2.74811 0.251907 2.74811H7.94652C8.08576 2.74811 8.19843 2.86078 8.19843 3.00001C8.19843 3.13925 8.08576 3.25192 7.94652 3.25192Z" fill="#003349"/>
<path d="M5.16307 6C5.09804 6 5.033 5.97504 4.98376 5.92512C4.88598 5.82618 4.88712 5.66657 4.98605 5.56878L7.58802 3.00002L4.98605 0.431253C4.88712 0.333467 4.88598 0.174079 4.98376 0.0749193C5.08155 -0.0240114 5.24094 -0.0251564 5.3401 0.0726293L8.12367 2.82071C8.17153 2.86811 8.19855 2.93269 8.19855 3.00002C8.19855 3.06735 8.17153 3.13192 8.12367 3.17933L5.3401 5.9274C5.29109 5.97595 5.22697 6 5.16307 6Z" fill="#003349"/>
</svg>
