<?xml version="1.0" encoding="UTF-8"?>
<svg id="Layer_1" data-name="Layer 1" xmlns="http://www.w3.org/2000/svg" version="1.1" xmlns:xlink="http://www.w3.org/1999/xlink" viewBox="0 0 300 107">
  <defs>
    <style>
      .cls-1 {
        fill: url(#linear-gradient);
      }

      .cls-1, .cls-2 {
        fill-rule: evenodd;
      }

      .cls-1, .cls-2, .cls-3 {
        stroke-width: 0px;
      }

      .cls-2 {
        fill: url(#linear-gradient-2);
      }

      .cls-3 {
        fill: #003349;
      }
    </style>
    <linearGradient id="linear-gradient" x1="29" y1="88.3" x2="52.2" y2="65.1" gradientTransform="translate(0 107) scale(1 -1)" gradientUnits="userSpaceOnUse">
      <stop offset="0" stop-color="#2cd5c4"/>
      <stop offset="1" stop-color="#003349"/>
    </linearGradient>
    <linearGradient id="linear-gradient-2" x1="23.2" y1="61.6" x2="46.4" y2="38.5" gradientTransform="translate(0 20.8)" gradientUnits="userSpaceOnUse">
      <stop offset="0" stop-color="#2cd5c4"/>
      <stop offset="1" stop-color="#003349"/>
    </linearGradient>
  </defs>
  <path class="cls-3" d="M90.4,61.2l2.4,2.7c-3.2,3.4-6.9,5.1-11.2,5.1s-8.3-1.5-11-4.4c-2.8-3-4.1-6.6-4.1-10.9s1.4-7.9,4.2-10.8c2.8-3,6.5-4.4,11-4.4s7.8,1.7,10.9,5l-2.3,2.7c-2.2-2.3-4.8-3.5-7.8-3.5s-4.4,1-6,3c-1.5,2-2.3,4.7-2.3,8.1s.8,6.2,2.2,8.1c1.5,1.9,3.5,2.9,6.1,2.9s5.5-1.2,7.8-3.6h0Z"/>
  <path class="cls-3" d="M124.1,50v18.2h-7.4v-3.6c-1.8,3-4.8,4.5-8.9,4.5-7.5,0-11.3-3.2-11.3-9.5s1.1-5.4,3.3-7c2.2-1.7,5.3-2.5,9.3-2.5h7.6v-1.2c0-2.1-.6-3.7-1.9-4.8s-3-1.8-5.2-1.8c-3.6,0-6.7,1.2-9.4,3.6l-2.2-2.6c2-1.8,4-3.1,6-3.9s4.3-1.1,6.9-1.1c4.1,0,7.3,1,9.7,3,2.3,2,3.5,4.9,3.5,8.8h0ZM116.7,57.2v-3.2h-7.2c-1.9,0-3.3.5-4.3,1.4-1,1-1.6,2.3-1.6,4.1s.5,3,1.5,4c1,1,2.4,1.5,4.1,1.5s4.1-.7,5.4-2.2,2-3.3,2-5.7h0Z"/>
  <path class="cls-3" d="M159.7,50.1v18.1h-7.6v-18.7c0-4.2-1.8-6.2-5.3-6.2s-4,.8-5.4,2.4c-1.4,1.6-2.1,3.4-2.1,5.4v17.2h-7.6v-28.7h7.6v3.6c.9-1.3,2.1-2.4,3.9-3.3,1.8-.9,3.6-1.3,5.5-1.3,3.6,0,6.3,1,8.2,3.1s2.9,4.9,2.9,8.4h0Z"/>
  <path class="cls-3" d="M197.1,53.9c0,4.4-1.5,8-4.5,10.9-3,2.8-6.8,4.2-11.5,4.2s-8.9-1.4-11.8-4.2c-2.9-2.8-4.4-6.5-4.4-11s1.5-8.1,4.5-10.9c3.1-2.9,6.9-4.3,11.6-4.3s8.3,1.4,11.4,4.3c3.1,2.8,4.6,6.5,4.6,11ZM189.4,53.6c0-3.2-.7-5.7-2.2-7.6s-3.5-2.9-6.1-2.9-4.6,1-6.1,2.9-2.2,4.5-2.2,7.6.7,6.1,2.1,8c1.4,2,3.5,2.9,6.2,2.9s4.6-1,6.1-3,2.2-4.7,2.2-8Z"/>
  <path class="cls-3" d="M234.5,54.1c0,4.2-1.4,7.7-4.1,10.5-2.8,2.9-6.2,4.3-10.4,4.3s-7.7-1.3-9.6-4.1h0v17.1h-7.6v-42.5h7.6v4h0c1-1.5,2.3-2.7,4-3.6,1.7-.9,3.6-1.3,5.7-1.3,4.2,0,7.7,1.5,10.4,4.5,2.7,3,4.1,6.7,4.1,11h0ZM226.8,54c0-3.4-.7-6.2-2.2-8.2s-3.4-3.1-6-3.1-4.8,1-6.2,2.9c-1.5,2-2.2,4.7-2.2,8.2s.8,6.3,2.2,8.2,3.6,2.9,6.3,2.9,4.5-1,5.9-3c1.4-2,2.2-4.7,2.2-8Z"/>
  <path class="cls-3" d="M239.8,57.6v-18.1h7.7v18.7c0,4.2,1.6,6.2,4.9,6.2s4.2-.8,5.7-2.3c1.5-1.5,2.2-3.3,2.2-5.5v-17.2h7.6v28.7h-7.6v-3.6c-.9,1.4-2.2,2.5-3.9,3.3s-3.6,1.3-5.5,1.3c-3.6,0-6.3-1-8.2-3.2-1.9-2.1-2.9-4.9-2.9-8.4h0Z"/>
  <path class="cls-3" d="M287.9,60.9c0-1.9-1.6-3.4-4.8-4.5-1-.4-1.8-.7-2.4-1-.6-.3-1.3-.7-2.2-1.3s-1.6-1.2-2.1-1.8c-.5-.6-1-1.4-1.3-2.3-.4-1-.6-2-.6-3.2,0-2.4,1-4.4,2.9-5.9,2-1.6,4.4-2.4,7.4-2.4s5.8,1.1,8.4,3.2l-1.9,3c-1.8-1.4-3.7-2.1-5.8-2.1s-2.4.3-3.1,1-1.1,1.5-1.1,2.6c0,1.6,1.6,3,4.8,4.2,1.3.5,2.3.9,3.1,1.3s1.6.9,2.6,1.6,1.8,1.6,2.3,2.7.8,2.4.8,3.8c0,2.8-1,5-3.1,6.7-2.1,1.6-5,2.4-8.7,2.4s-7-1.3-9.8-3.9l2.1-2.7c2.1,1.8,4.6,2.7,7.3,2.7s5.2-1.4,5.2-4.1h0Z"/>
  <g>
    <circle class="cls-3" cx="40.6" cy="53.5" r="7.1"/>
    <g>
      <polygon class="cls-1" points="52.2 18.7 29 18.7 5.8 41.9 29 41.9 52.2 41.9 75.4 18.7 52.2 18.7"/>
      <polygon class="cls-2" points="29 88.3 5.8 65.1 29 65.1 52.2 65.1 52.2 88.3 29 88.3"/>
    </g>
  </g>
  <rect class="cls-3" x="5.8" y="41.9" width="23.2" height="23.2"/>
</svg>