<svg width="92" height="65" viewBox="0 0 92 65" fill="none" xmlns="http://www.w3.org/2000/svg">
<path d="M21.3794 22.0566V35.3379C21.3794 36.0183 21.588 36.666 21.96 37.2085" stroke="#8F583B" stroke-miterlimit="10" stroke-linecap="round" stroke-linejoin="round"/>
<path d="M70.7957 22.0562V35.3375C70.7957 36.5295 70.1554 37.6272 69.1174 38.2133C65.9007 40.0331 58.1005 43.5693 46.0892 43.5693C44.8192 43.5693 43.5963 43.5294 42.4224 43.4568" stroke="#8F583B" stroke-miterlimit="10" stroke-linecap="round" stroke-linejoin="round"/>
<path d="M32.8999 25.3941L44.8427 28.9133C45.6552 29.1526 46.5194 29.1526 47.3319 28.9133L90.2268 16.2734C91.4905 15.9011 91.4905 14.1114 90.2268 13.739L77.8983 10.1063" stroke="#8F583B" stroke-miterlimit="10" stroke-linecap="round" stroke-linejoin="round"/>
<path d="M71.9992 8.36781L47.3321 1.0992C46.5194 0.859886 45.6552 0.859886 44.8427 1.0992L1.94781 13.7389C0.684094 14.1112 0.684092 15.9009 1.94763 16.2733L27.1071 23.687" stroke="#8F583B" stroke-miterlimit="10" stroke-linecap="round" stroke-linejoin="round"/>
<path d="M84.8459 30.2905V17.8589L47.1978 14.7561" stroke="#8F583B" stroke-miterlimit="10" stroke-linecap="round" stroke-linejoin="round"/>
<path d="M89.0895 34.6994C89.0895 37.043 87.1895 38.9429 84.8458 38.9429C82.5024 38.9429 80.6025 37.043 80.6025 34.6994C80.6025 32.3558 82.5024 30.4559 84.8458 30.4559C87.1895 30.4559 89.0895 32.3558 89.0895 34.6994Z" stroke="#8F583B" stroke-miterlimit="10" stroke-linecap="round" stroke-linejoin="round"/>
<path d="M82.8126 52.1582C81.5872 52.1582 80.5974 51.1581 80.6105 49.9327C80.6676 44.6035 81.1285 38.943 84.8458 38.943C88.5633 38.943 89.0241 44.6035 89.0813 49.9327C89.0944 51.1581 88.1046 52.1582 86.8792 52.1582H82.8126Z" stroke="#8F583B" stroke-miterlimit="10" stroke-linecap="round" stroke-linejoin="round"/>
<path d="M70.7961 30.1515C67.3444 32.5423 58.9759 37.1909 46.0883 37.1909C33.1991 37.1909 24.8303 32.5423 21.3784 30.1515" stroke="#8F583B" stroke-miterlimit="10" stroke-linecap="round" stroke-linejoin="round"/>
<path d="M7.74121 48.3741L60.2204 64.3982C62.3944 65.0621 65.1262 62.4249 66.3222 58.508C67.5183 54.5909 66.7256 50.8774 64.5516 50.2137L12.0723 34.1894" stroke="#8F583B" stroke-miterlimit="10" stroke-linecap="round" stroke-linejoin="round"/>
<path d="M14.3936 39.2834C14.4819 36.7154 13.6334 34.6658 12.0721 34.1892C9.89826 33.5255 7.16634 36.1627 5.9703 40.0796C4.77426 43.9967 5.56714 47.71 7.74096 48.3739C9.38461 48.8757 11.3469 47.4897 12.7234 45.0909" stroke="#8F583B" stroke-miterlimit="10" stroke-linecap="round" stroke-linejoin="round"/>
<path d="M38.3116 42.2023C40.4841 42.8657 41.2781 46.5779 40.0817 50.4962C38.8858 54.4128 36.153 57.05 33.9805 56.3866" stroke="#8F583B" stroke-miterlimit="10" stroke-linecap="round" stroke-linejoin="round"/>
</svg>
