<svg width="77" height="78" viewBox="0 0 77 78" fill="none" xmlns="http://www.w3.org/2000/svg">
<path d="M35.1274 64.3115L26.4858 70.1255" stroke="#8F583B" stroke-miterlimit="10" stroke-linecap="round" stroke-linejoin="round"/>
<mask id="mask0_2838_2947" style="mask-type:luminance" maskUnits="userSpaceOnUse" x="0" y="0" width="77" height="78">
<path d="M76.5 77.0005V1.00049H0.5V77.0005H76.5Z" fill="white" stroke="white"/>
</mask>
<g mask="url(#mask0_2838_2947)">
<path d="M17.5516 61.1846C17.5516 61.1846 17.4381 56.3019 19.8116 52.2394C21.3019 49.6886 22.248 46.8571 22.4852 43.9123L22.9839 37.7204C23.0444 36.9686 23.6721 36.3896 24.4261 36.3896C26.7396 36.3896 28.6714 38.1594 28.8663 40.4646C29.2632 45.1617 29.4706 51.0396 32.9387 52.568C36.5818 54.1731 44.8967 45.2491 44.8967 45.2491L48.7587 39.1514C49.848 37.4318 51.7416 36.3896 53.7771 36.3896C55.2158 36.3896 56.1393 37.9182 55.4702 39.1917L53.1068 43.6894C52.0321 45.735 50.7636 47.6726 49.3188 49.476L43.9372 56.1924C42.3677 58.1512 40.6192 59.9549 38.716 61.5811" stroke="#8F583B" stroke-miterlimit="10" stroke-linecap="round" stroke-linejoin="round"/>
<path d="M22.1666 75.955L11.7037 65.492C11.2465 65.0348 11.2465 64.2935 11.7037 63.8363L15.1221 60.418C15.5793 59.9608 16.3206 59.9608 16.7778 60.418L27.2406 70.8809C27.6978 71.338 27.6978 72.0792 27.2406 72.5366L23.8222 75.955C23.365 76.4121 22.6237 76.4121 22.1666 75.955Z" stroke="#8F583B" stroke-miterlimit="10" stroke-linecap="round" stroke-linejoin="round"/>
<path d="M15.7515 64.4656L16.8386 65.5527" stroke="#8F583B" stroke-miterlimit="10" stroke-linecap="round" stroke-linejoin="round"/>
<path d="M53.5335 31.1515H68.509C69.9554 31.1515 71.128 32.3241 71.128 33.7706C71.128 35.2171 69.9554 36.3896 68.509 36.3896H8.49048C7.04403 36.3896 5.87158 35.2171 5.87158 33.7706C5.87158 32.3241 7.04403 31.1515 8.49048 31.1515H49.0218" stroke="#8F583B" stroke-miterlimit="10" stroke-linecap="round" stroke-linejoin="round"/>
<path d="M17.8536 16.1527C13.9023 20.1837 11.1222 25.3671 10.0635 31.1519" stroke="#8F583B" stroke-miterlimit="10" stroke-linecap="round" stroke-linejoin="round"/>
<path d="M66.9364 31.1519C64.4716 17.6854 52.6782 7.47858 38.4998 7.47858C32.0353 7.47858 26.0667 9.60029 21.252 13.1853" stroke="#8F583B" stroke-miterlimit="10" stroke-linecap="round" stroke-linejoin="round"/>
<path d="M41.4435 7.62793V4.64704C41.4435 3.02147 40.1257 1.70359 38.5001 1.70359C36.8744 1.70359 35.5566 3.02147 35.5566 4.64704V7.62793" stroke="#8F583B" stroke-miterlimit="10" stroke-linecap="round" stroke-linejoin="round"/>
<path d="M48.988 38.8167L49.371 38.2571C49.9135 37.465 49.3463 36.3893 48.3864 36.3893C45.7216 36.3893 43.2636 37.8253 41.9556 40.1468L39.3652 44.7432L32.2275 52.1597" stroke="#8F583B" stroke-miterlimit="10" stroke-linecap="round" stroke-linejoin="round"/>
</g>
</svg>
