<svg width="103" height="91" viewBox="0 0 103 91" fill="none" xmlns="http://www.w3.org/2000/svg">
<path d="M26.25 20.2646V26.5766H19.938V20.2646" stroke="#2CD5C4" stroke-miterlimit="10" stroke-linecap="round" stroke-linejoin="round"/>
<path d="M19.938 13.9522V4.4842C19.938 2.74058 21.3504 1.32617 23.094 1.32617C23.9658 1.32617 24.7543 1.67977 25.3253 2.25082C25.8964 2.82187 26.25 3.61239 26.25 4.4842V13.9522" stroke="#2CD5C4" stroke-miterlimit="10" stroke-linecap="round" stroke-linejoin="round"/>
<path d="M64.124 58.1387V64.4527H57.812V58.1387" stroke="#2CD5C4" stroke-miterlimit="10" stroke-linecap="round" stroke-linejoin="round"/>
<path d="M57.812 51.8261V39.2021" stroke="#2CD5C4" stroke-miterlimit="10" stroke-linecap="round" stroke-linejoin="round"/>
<path d="M64.124 51.8261V39.2021" stroke="#2CD5C4" stroke-miterlimit="10" stroke-linecap="round" stroke-linejoin="round"/>
<path d="M57.812 32.8907V20.2646" stroke="#2CD5C4" stroke-miterlimit="10" stroke-linecap="round" stroke-linejoin="round"/>
<path d="M64.124 32.8907V20.2646" stroke="#2CD5C4" stroke-miterlimit="10" stroke-linecap="round" stroke-linejoin="round"/>
<path d="M57.812 13.9522V4.4842C57.812 2.74058 59.2264 1.32617 60.968 1.32617C61.8398 1.32617 62.6283 1.67977 63.1994 2.25082C63.7704 2.82187 64.124 3.61239 64.124 4.4842V13.9522" stroke="#2CD5C4" stroke-miterlimit="10" stroke-linecap="round" stroke-linejoin="round"/>
<path d="M1 74.1094V86.6541C1 88.3368 2.36563 89.7024 4.04829 89.7024H73.4294" stroke="#2CD5C4" stroke-miterlimit="10" stroke-linecap="round" stroke-linejoin="round"/>
<path d="M1 67.468V29.6245C1 27.9418 2.36563 26.5762 4.04829 26.5762H29.5137C31.1984 26.5762 32.562 27.9418 32.562 29.6245V42.4903C32.562 44.1729 33.9276 45.5386 35.6103 45.5386H48.4517C50.1344 45.5386 51.5 46.9022 51.5 48.5869V61.4039C51.5 63.0866 52.8656 64.4522 54.5483 64.4522H98.9517C100.634 64.4522 102 65.8158 102 67.5005V86.6539C102 88.3366 100.634 89.7022 98.9517 89.7022H80.0706" stroke="#2CD5C4" stroke-miterlimit="10" stroke-linecap="round" stroke-linejoin="round"/>
<path d="M83.062 51.8262H92.53C94.2736 51.8262 95.688 53.2406 95.688 54.9822C95.688 55.854 95.3344 56.6425 94.7634 57.2135C94.1923 57.7846 93.4018 58.1382 92.53 58.1382H83.062" stroke="#2CD5C4" stroke-miterlimit="10" stroke-linecap="round" stroke-linejoin="round"/>
<path d="M76.75 58.1382H51.5V51.8262H76.75" stroke="#2CD5C4" stroke-miterlimit="10" stroke-linecap="round" stroke-linejoin="round"/>
<path d="M83.062 13.9521H92.53C94.2736 13.9521 95.688 15.3645 95.688 17.1081C95.688 17.98 95.3344 18.7684 94.7634 19.3395C94.1923 19.9105 93.4018 20.2641 92.53 20.2641H83.062" stroke="#2CD5C4" stroke-miterlimit="10" stroke-linecap="round" stroke-linejoin="round"/>
<path d="M76.75 13.9521H45.188" stroke="#2CD5C4" stroke-miterlimit="10" stroke-linecap="round" stroke-linejoin="round"/>
<path d="M76.75 20.2646H45.188" stroke="#2CD5C4" stroke-miterlimit="10" stroke-linecap="round" stroke-linejoin="round"/>
<path d="M38.876 20.2641H26.25H19.938H10.47C8.72642 20.2641 7.31201 18.8518 7.31201 17.1081C7.31201 16.2363 7.66561 15.4478 8.23666 14.8768C8.80771 14.3057 9.59823 13.9521 10.47 13.9521H19.938H26.25H38.876" stroke="#2CD5C4" stroke-miterlimit="10" stroke-linecap="round" stroke-linejoin="round"/>
<path d="M23.0942 39.202C24.8373 39.202 26.2504 37.789 26.2504 36.0458C26.2504 34.3027 24.8373 32.8896 23.0942 32.8896C21.3511 32.8896 19.938 34.3027 19.938 36.0458C19.938 37.789 21.3511 39.202 23.0942 39.202Z" stroke="#2CD5C4" stroke-miterlimit="10" stroke-linecap="round" stroke-linejoin="round"/>
<path d="M10.4692 58.1395C12.2123 58.1395 13.6254 56.7265 13.6254 54.9833C13.6254 53.2402 12.2123 51.8271 10.4692 51.8271C8.72607 51.8271 7.31299 53.2402 7.31299 54.9833C7.31299 56.7265 8.72607 58.1395 10.4692 58.1395Z" stroke="#2CD5C4" stroke-miterlimit="10" stroke-linecap="round" stroke-linejoin="round"/>
<path d="M29.4062 77.0761C31.1493 77.0761 32.5624 75.663 32.5624 73.9199C32.5624 72.1768 31.1493 70.7637 29.4062 70.7637C27.6631 70.7637 26.25 72.1768 26.25 73.9199C26.25 75.663 27.6631 77.0761 29.4062 77.0761Z" stroke="#2CD5C4" stroke-miterlimit="10" stroke-linecap="round" stroke-linejoin="round"/>
<path d="M60.9682 83.3886C62.7113 83.3886 64.1244 81.9755 64.1244 80.2324C64.1244 78.4893 62.7113 77.0762 60.9682 77.0762C59.2251 77.0762 57.812 78.4893 57.812 80.2324C57.812 81.9755 59.2251 83.3886 60.9682 83.3886Z" stroke="#2CD5C4" stroke-miterlimit="10" stroke-linecap="round" stroke-linejoin="round"/>
<path d="M86.2182 77.0761C87.9613 77.0761 89.3744 75.663 89.3744 73.9199C89.3744 72.1768 87.9613 70.7637 86.2182 70.7637C84.4751 70.7637 83.062 72.1768 83.062 73.9199C83.062 75.663 84.4751 77.0761 86.2182 77.0761Z" stroke="#2CD5C4" stroke-miterlimit="10" stroke-linecap="round" stroke-linejoin="round"/>
<circle cx="13.6252" cy="32.8894" r="1.52415" stroke="#2CD5C4" stroke-miterlimit="10" stroke-linecap="round" stroke-linejoin="round"/>
<circle cx="19.9377" cy="51.8269" r="1.52415" stroke="#2CD5C4" stroke-miterlimit="10" stroke-linecap="round" stroke-linejoin="round"/>
<circle cx="38.8747" cy="70.7644" r="1.52415" stroke="#2CD5C4" stroke-miterlimit="10" stroke-linecap="round" stroke-linejoin="round"/>
<circle cx="51.4997" cy="77.0769" r="1.52415" stroke="#2CD5C4" stroke-miterlimit="10" stroke-linecap="round" stroke-linejoin="round"/>
<circle cx="76.7497" cy="77.0769" r="1.52415" stroke="#2CD5C4" stroke-miterlimit="10" stroke-linecap="round" stroke-linejoin="round"/>
<circle cx="95.6872" cy="83.3406" r="1.52415" stroke="#2CD5C4" stroke-miterlimit="10" stroke-linecap="round" stroke-linejoin="round"/>
<circle cx="38.8747" cy="51.8269" r="1.52415" stroke="#2CD5C4" stroke-miterlimit="10" stroke-linecap="round" stroke-linejoin="round"/>
<circle cx="45.1872" cy="58.1872" r="1.52415" stroke="#2CD5C4" stroke-miterlimit="10" stroke-linecap="round" stroke-linejoin="round"/>
<circle cx="13.6252" cy="64.4519" r="1.52415" stroke="#2CD5C4" stroke-miterlimit="10" stroke-linecap="round" stroke-linejoin="round"/>
<circle cx="32.5627" cy="83.3406" r="1.52415" stroke="#2CD5C4" stroke-miterlimit="10" stroke-linecap="round" stroke-linejoin="round"/>
<circle cx="95.6872" cy="70.7644" r="1.52415" stroke="#2CD5C4" stroke-miterlimit="10" stroke-linecap="round" stroke-linejoin="round"/>
<path d="M76.75 39.2021H45.188" stroke="#2CD5C4" stroke-miterlimit="10" stroke-linecap="round" stroke-linejoin="round"/>
<path d="M76.75 32.8906H45.188" stroke="#2CD5C4" stroke-miterlimit="10" stroke-linecap="round" stroke-linejoin="round"/>
<path d="M83.062 32.8906H92.53C94.2736 32.8906 95.688 34.303 95.688 36.0466C95.688 36.9184 95.3344 37.7069 94.7634 38.278C94.1923 38.849 93.4018 39.2026 92.53 39.2026H83.062" stroke="#2CD5C4" stroke-miterlimit="10" stroke-linecap="round" stroke-linejoin="round"/>
<path d="M38.876 39.2026H32.562V32.8906H38.876" stroke="#2CD5C4" stroke-miterlimit="10" stroke-linecap="round" stroke-linejoin="round"/>
<path d="M83.062 29.6346V64.4522H76.75V4.4842C76.75 2.74058 78.1624 1.32617 79.906 1.32617C80.7778 1.32617 81.5663 1.67977 82.1373 2.25082C82.7084 2.82187 83.062 3.61239 83.062 4.4842V22.9934" stroke="#2CD5C4" stroke-miterlimit="10" stroke-linecap="round" stroke-linejoin="round"/>
<path d="M45.1874 45.5143H38.875V4.48335C38.875 2.74013 40.2882 1.32715 42.0312 1.32715C43.7744 1.32715 45.1874 2.74034 45.1874 4.48335V45.5143Z" stroke="#2CD5C4" stroke-miterlimit="10" stroke-linecap="round" stroke-linejoin="round"/>
</svg>
