<svg width="209" height="209" viewBox="0 0 209 209" fill="none" xmlns="http://www.w3.org/2000/svg">
<path d="M127.223 154.135C130.952 155.52 134.988 156.277 139.199 156.277C145.465 156.277 151.339 154.601 156.4 151.674C161.46 154.601 167.334 156.277 173.6 156.277C192.599 156.277 208.001 140.876 208.001 121.877C208.001 107.126 198.716 94.5463 185.673 89.6566C188.923 84.4041 190.8 78.2135 190.8 71.5832C190.8 52.5842 175.399 37.1825 156.4 37.1825C144.095 37.1825 133.3 43.6424 127.219 53.3558" stroke="#2CD5C4" stroke-miterlimit="10" stroke-linecap="round" stroke-linejoin="round"/>
<path d="M84.5851 17.8291H130.585V0.999827H1V17.8291H46.7201" stroke="#2CD5C4" stroke-miterlimit="10" stroke-linecap="round" stroke-linejoin="round"/>
<path d="M21.1958 185.281H39.708V161.72H21.1958V185.281Z" stroke="#2CD5C4" stroke-miterlimit="10" stroke-linecap="round" stroke-linejoin="round"/>
<path d="M56.5376 185.281H75.0498V161.72H56.5376V185.281Z" stroke="#2CD5C4" stroke-miterlimit="10" stroke-linecap="round" stroke-linejoin="round"/>
<path d="M91.8784 185.281H110.391V161.72H91.8784V185.281Z" stroke="#2CD5C4" stroke-miterlimit="10" stroke-linecap="round" stroke-linejoin="round"/>
<path d="M21.1958 144.891H39.708V121.33H21.1958V144.891Z" stroke="#2CD5C4" stroke-miterlimit="10" stroke-linecap="round" stroke-linejoin="round"/>
<path d="M56.5376 144.891H75.0498V121.33H56.5376V144.891Z" stroke="#2CD5C4" stroke-miterlimit="10" stroke-linecap="round" stroke-linejoin="round"/>
<path d="M91.8784 144.891H110.391V121.33H91.8784V144.891Z" stroke="#2CD5C4" stroke-miterlimit="10" stroke-linecap="round" stroke-linejoin="round"/>
<path d="M21.1958 104.5H39.708V80.939H21.1958V104.5Z" stroke="#2CD5C4" stroke-miterlimit="10" stroke-linecap="round" stroke-linejoin="round"/>
<path d="M56.5376 104.5H75.0498V80.939H56.5376V104.5Z" stroke="#2CD5C4" stroke-miterlimit="10" stroke-linecap="round" stroke-linejoin="round"/>
<path d="M91.8784 104.5H110.391V80.939H91.8784V104.5Z" stroke="#2CD5C4" stroke-miterlimit="10" stroke-linecap="round" stroke-linejoin="round"/>
<path d="M21.1958 64.1094H39.708V40.5484H21.1958V64.1094Z" stroke="#2CD5C4" stroke-miterlimit="10" stroke-linecap="round" stroke-linejoin="round"/>
<path d="M56.5376 64.1094H75.0498V40.5484H56.5376V64.1094Z" stroke="#2CD5C4" stroke-miterlimit="10" stroke-linecap="round" stroke-linejoin="round"/>
<path d="M91.8784 64.1094H110.391V40.5484H91.8784V64.1094Z" stroke="#2CD5C4" stroke-miterlimit="10" stroke-linecap="round" stroke-linejoin="round"/>
<path d="M127.22 18.2497V176.585" stroke="#2CD5C4" stroke-miterlimit="10" stroke-linecap="round" stroke-linejoin="round"/>
<path d="M107.105 208H4.36621V18.2499" stroke="#2CD5C4" stroke-miterlimit="10" stroke-linecap="round" stroke-linejoin="round"/>
<path d="M156.399 82.7622V186.402" stroke="#2CD5C4" stroke-miterlimit="10" stroke-linecap="round" stroke-linejoin="round"/>
<path d="M156.399 133.109L176.73 112.778" stroke="#2CD5C4" stroke-miterlimit="10" stroke-linecap="round" stroke-linejoin="round"/>
<path d="M156.399 112.915L145.736 102.252" stroke="#2CD5C4" stroke-miterlimit="10" stroke-linecap="round" stroke-linejoin="round"/>
<path d="M107.103 208C105.21 205.742 104.069 202.832 104.069 199.654C104.069 192.472 109.891 186.65 117.073 186.65C117.331 186.65 117.587 186.66 117.842 186.675C120.751 180.034 127.377 175.393 135.091 175.393C143.421 175.393 150.482 180.806 152.963 188.304C154.84 187.252 157.004 186.65 159.308 186.65C166.49 186.65 172.312 192.472 172.312 199.654C172.312 202.832 171.171 205.742 169.279 208H107.103Z" stroke="#2CD5C4" stroke-miterlimit="10" stroke-linecap="round" stroke-linejoin="round"/>
</svg>
