<svg width="77" height="69" viewBox="0 0 77 69" fill="none" xmlns="http://www.w3.org/2000/svg">
<path d="M8.03711 44.0233H69.2304V66.9708C69.2304 67.8122 68.542 68.5005 67.7006 68.5005H9.56694C8.72553 68.5005 8.03711 67.8122 8.03711 66.9708V44.0233Z" stroke="#8F583B" stroke-miterlimit="2.613" stroke-linecap="round" stroke-linejoin="round"/>
<path d="M32.5147 50.1429H44.7534C46.4362 50.1429 47.8131 51.5197 47.8131 53.2025C47.8131 54.8854 46.4362 56.2622 44.7534 56.2622H32.5147C30.8319 56.2622 29.4551 54.8854 29.4551 53.2025C29.4551 51.5197 30.8319 50.1429 32.5147 50.1429Z" stroke="#8F583B" stroke-miterlimit="2.613" stroke-linecap="round" stroke-linejoin="round"/>
<path d="M8.03723 44.0234L1 25.6655" stroke="#8F583B" stroke-miterlimit="2.613" stroke-linecap="round" stroke-linejoin="round"/>
<path d="M76.2678 25.6655L69.2305 44.0234" stroke="#8F583B" stroke-miterlimit="2.613" stroke-linecap="round" stroke-linejoin="round"/>
<path d="M10.3066 11.6628C10.8049 6.00819 12.5697 2.1059 15.4718 1.32828C21.1845 -0.202468 29.1367 10.9511 33.2335 26.2402C33.9052 28.7472 34.4313 31.2093 34.8165 33.581M16.99 43.9497C15.2795 40.3935 13.7468 36.2664 12.5455 31.7834C11.9619 29.6051 11.4883 27.4604 11.1213 25.3794" stroke="#8F583B" stroke-miterlimit="2.613" stroke-linecap="round" stroke-linejoin="round"/>
<path d="M19.1211 30.0215L26.6574 28.0021" stroke="#8F583B" stroke-miterlimit="2.613" stroke-linecap="round" stroke-linejoin="round"/>
<path d="M17.8193 21.4688L23.5088 19.9443" stroke="#8F583B" stroke-miterlimit="2.613" stroke-linecap="round" stroke-linejoin="round"/>
<path d="M22.2705 38.0796L27.9598 36.5551" stroke="#8F583B" stroke-miterlimit="2.613" stroke-linecap="round" stroke-linejoin="round"/>
<path d="M16.8379 13.813L20.5324 12.823" stroke="#8F583B" stroke-miterlimit="2.613" stroke-linecap="round" stroke-linejoin="round"/>
<path d="M32.0498 43.916L35.852 29.7256C34.5679 28.4329 33.9812 26.5084 34.4844 24.6306C35.236 21.8259 38.1457 20.1458 40.9507 20.8974L63.0497 26.8188C65.8547 27.5704 67.5346 30.4803 66.783 33.2851C66.2799 35.1626 64.8096 36.5361 63.0511 37.0136L61.2015 43.916" stroke="#8F583B" stroke-miterlimit="2.613" stroke-linecap="round" stroke-linejoin="round"/>
<path d="M64.0283 27.0928C67.1692 18.1225 67.2375 10.7675 63.6194 8.67865C59.3559 6.21699 51.3188 11.8445 44.1797 21.7061" stroke="#8F583B" stroke-miterlimit="2.613" stroke-linecap="round" stroke-linejoin="round"/>
<path d="M59.0692 20.3838L55.7568 18.4713" stroke="#8F583B" stroke-miterlimit="2.613" stroke-linecap="round" stroke-linejoin="round"/>
<path d="M47.9111 30.1333H47.9128" stroke="#8F583B" stroke-miterlimit="22.926" stroke-linecap="round" stroke-linejoin="round"/>
<path d="M39.8799 38.165H39.8811" stroke="#8F583B" stroke-miterlimit="22.926" stroke-linecap="round" stroke-linejoin="round"/>
<path d="M55.6367 35.8701H55.6383" stroke="#8F583B" stroke-miterlimit="22.926" stroke-linecap="round" stroke-linejoin="round"/>
<path d="M10.2773 18.5469H10.279" stroke="#8F583B" stroke-miterlimit="2.613" stroke-linecap="round" stroke-linejoin="round"/>
</svg>
