<svg width="91" height="46" viewBox="0 0 91 46" fill="none" xmlns="http://www.w3.org/2000/svg">
<path d="M59.5233 27.8574H30.3003" stroke="#8F583B" stroke-miterlimit="10" stroke-linecap="round" stroke-linejoin="round"/>
<path d="M30.3003 18.5459H59.5233" stroke="#8F583B" stroke-miterlimit="10" stroke-linecap="round" stroke-linejoin="round"/>
<path d="M81.8984 18.5459H90.2678V27.8569H81.8984" stroke="#8F583B" stroke-miterlimit="10" stroke-linecap="round" stroke-linejoin="round"/>
<path d="M7.78761 27.8574H1V18.5464H7.78761" stroke="#8F583B" stroke-miterlimit="10" stroke-linecap="round" stroke-linejoin="round"/>
<path d="M14.8258 42.4741H11C9.34786 42.4741 8.0083 41.1346 8.0083 39.4824V6.92054C8.0083 5.26819 9.34786 3.92881 11 3.92881H14.8258C16.4782 3.92881 17.8176 5.26819 17.8176 6.92054V39.4824C17.8176 41.1346 16.4782 42.4741 14.8258 42.4741Z" stroke="#8F583B" stroke-miterlimit="10" stroke-linecap="round" stroke-linejoin="round"/>
<path d="M26.8706 45.501H20.8096C19.1572 45.501 17.8179 44.1616 17.8179 42.5094V3.89389C17.8179 2.24153 19.1572 0.90215 20.8096 0.90215H26.8706C28.5227 0.90215 29.8623 2.24153 29.8623 3.89389V42.5094C29.8623 44.1616 28.5227 45.501 26.8706 45.501Z" stroke="#8F583B" stroke-miterlimit="10" stroke-linecap="round" stroke-linejoin="round"/>
<path d="M74.8824 3.92881H78.7082C80.3604 3.92881 81.6999 5.26837 81.6999 6.92054V39.4824C81.6999 41.1347 80.3604 42.4741 78.7082 42.4741H74.8824C73.2302 42.4741 71.8906 41.1347 71.8906 39.4824V6.92054C71.8906 5.26837 73.2302 3.92881 74.8824 3.92881Z" stroke="#8F583B" stroke-miterlimit="10" stroke-linecap="round" stroke-linejoin="round"/>
<path d="M62.8379 0.90215H68.8989C70.5512 0.90215 71.8906 2.24153 71.8906 3.89371V42.5092C71.8906 44.1616 70.5512 45.501 68.8989 45.501H62.8379C61.1858 45.501 59.8462 44.1616 59.8462 42.5092V3.89371C59.8462 2.24153 61.1858 0.90215 62.8379 0.90215Z" stroke="#8F583B" stroke-miterlimit="10" stroke-linecap="round" stroke-linejoin="round"/>
</svg>
