<svg width="139" height="201" viewBox="0 0 139 201" fill="none" xmlns="http://www.w3.org/2000/svg">
<path d="M22.2324 171.572C22.2324 166.302 26.5048 162.03 31.7749 162.03C37.045 162.03 41.3174 166.302 41.3174 171.572C41.3174 176.842 37.045 181.115 31.7749 181.115" stroke="white" stroke-miterlimit="10" stroke-linecap="round" stroke-linejoin="round"/>
<path d="M31.7749 181.115C37.045 181.115 41.3174 185.387 41.3174 190.657C41.3174 195.927 37.045 200.2 31.7749 200.2C26.5048 200.2 22.2324 195.927 22.2324 190.657" stroke="white" stroke-miterlimit="10" stroke-linecap="round" stroke-linejoin="round"/>
<path d="M69.9448 200.2C75.215 200.2 79.4873 195.927 79.4873 190.657C79.4873 185.387 75.215 181.115 69.9448 181.115C64.6747 181.115 60.4023 185.387 60.4023 190.657C60.4023 195.927 64.6747 200.2 69.9448 200.2Z" stroke="white" stroke-miterlimit="10" stroke-linecap="round" stroke-linejoin="round"/>
<path d="M60.4023 190.657V171.572C60.4023 166.302 64.6748 162.03 69.9448 162.03C72.58 162.03 74.9656 163.098 76.6923 164.825" stroke="white" stroke-miterlimit="10" stroke-linecap="round" stroke-linejoin="round"/>
<path d="M108.115 200.2C102.845 200.2 98.5723 195.927 98.5723 190.657V171.572C98.5723 166.302 102.845 162.03 108.115 162.03C113.385 162.03 117.657 166.302 117.657 171.572V190.657C117.657 195.927 113.385 200.2 108.115 200.2Z" stroke="white" stroke-miterlimit="10" stroke-linecap="round" stroke-linejoin="round"/>
<circle cx="133.045" cy="165.012" r="2.98203" stroke="white" stroke-miterlimit="10" stroke-linecap="round" stroke-linejoin="round"/>
<path d="M87.2427 107.538C117.402 109.694 138.414 117.082 138.414 125.53C138.414 135.361 110.175 143.496 73.9434 144.102" stroke="white" stroke-miterlimit="22.926" stroke-linecap="round" stroke-linejoin="round"/>
<path d="M68.7532 29.6274C76.6369 29.6274 83.0669 23.1977 83.0669 15.3137C83.0669 7.43 76.6369 0.999946 68.7532 0.999946C60.8692 0.999946 54.4395 7.43 54.4395 15.3137C54.4395 23.1977 60.8692 29.6274 68.7532 29.6274Z" stroke="white" stroke-miterlimit="22.926" stroke-linecap="round" stroke-linejoin="round"/>
<path d="M92.6022 45.8492V71.2955C92.6022 76.0029 89.1612 79.9347 84.665 80.7019V114.237C84.665 119.492 80.3786 123.779 75.1225 123.779H62.3849C57.1292 123.779 52.8424 119.492 52.8424 114.237V80.7019C48.3463 79.9347 44.9053 76.0045 44.9053 71.2955V45.8492C44.9053 40.5935 49.1921 36.3067 54.4478 36.3067H83.0597C88.3154 36.3067 92.6022 40.5964 92.6022 45.8492Z" stroke="white" stroke-miterlimit="22.926" stroke-linecap="round" stroke-linejoin="round"/>
<path d="M29.7236 154.316L46.3285 142.908L33.6424 127.223" stroke="white" stroke-miterlimit="22.926" stroke-linecap="round" stroke-linejoin="round"/>
<path d="M45.5832 142.953C18.7662 140.229 1 133.286 1 125.529C1 117.111 21.8694 109.741 51.8898 107.558" stroke="white" stroke-miterlimit="22.926" stroke-linecap="round" stroke-linejoin="round"/>
</svg>
