<svg width="41" height="54" viewBox="0 0 41 54" fill="none" xmlns="http://www.w3.org/2000/svg">
<path d="M33.3898 35.3824L39.2494 46.5889L39.2117 46.6088L30.6692 44.296L27.6928 52.6309L21.1748 40.1653" stroke="white" stroke-miterlimit="10" stroke-linejoin="round"/>
<path d="M7.73554 35.3824L1.87598 46.5889L1.91372 46.6088L10.4562 44.296L13.4326 52.6309L19.9506 40.1653" stroke="white" stroke-miterlimit="10" stroke-linejoin="round"/>
<path d="M25.2809 1.62191C33.8058 3.73299 40.1255 11.4344 40.1255 20.612C40.1255 31.4163 31.367 40.1748 20.5628 40.1748C9.75853 40.1748 1 31.4163 1 20.612C1 11.4345 7.31961 3.73299 15.8446 1.62191" stroke="white" stroke-miterlimit="10" stroke-linecap="round" stroke-linejoin="round"/>
<path d="M20.563 34.9326C12.6665 34.9326 6.24219 28.5084 6.24219 20.6119C6.24219 12.7154 12.6665 6.29119 20.563 6.29119C28.4594 6.29119 34.8837 12.7154 34.8837 20.6119C34.8837 28.5084 28.4594 34.9326 20.563 34.9326Z" stroke="white" stroke-miterlimit="10" stroke-linecap="round" stroke-linejoin="round"/>
<path d="M21.2146 14.4389L22.5115 16.945C22.8157 17.5329 23.3796 17.9425 24.0327 18.0503L26.8171 18.5093C27.4045 18.6061 27.6382 19.3254 27.2197 19.749L25.2371 21.757C24.772 22.228 24.5567 22.8909 24.6561 23.5452L25.0798 26.3351C25.1693 26.9237 24.5574 27.3682 24.0252 27.1013L21.5029 25.8361C20.9113 25.5394 20.2143 25.5394 19.6226 25.8361L17.1003 27.1013C16.5681 27.3682 15.9563 26.9237 16.0457 26.3351L16.4694 23.5452C16.5688 22.8909 16.3535 22.228 15.8885 21.757L13.9058 19.749C13.4875 19.3254 13.7211 18.6061 14.3086 18.5093L17.0929 18.0503C17.746 17.9425 18.3097 17.5329 18.614 16.945L19.911 14.4389C20.1846 13.9101 20.9409 13.9101 21.2146 14.4389Z" stroke="white" stroke-miterlimit="10" stroke-linecap="round" stroke-linejoin="round"/>
<path d="M20.5635 1.59766C20.8662 1.59743 21.1113 1.35158 21.1113 1.04883C21.1111 0.746264 20.866 0.501202 20.5635 0.500977C20.2607 0.500977 20.0149 0.746125 20.0146 1.04883C20.0146 1.35172 20.2606 1.59766 20.5635 1.59766Z" fill="black" stroke="white"/>
</svg>
