<svg width="74" height="82" viewBox="0 0 74 82" fill="none" xmlns="http://www.w3.org/2000/svg">
<path d="M35.3638 7.53626H38.6365C39.5365 7.53626 40.2729 8.27263 40.2729 9.17263V12.4454H43.5456C44.4456 12.4454 45.182 13.1817 45.182 14.0817V17.3544C45.182 18.2544 44.4456 18.9908 43.5456 18.9908H40.2729V22.2635C40.2729 23.1635 39.5365 23.8999 38.6365 23.8999H35.3638C34.4638 23.8999 33.7275 23.1635 33.7275 22.2635V18.9908H30.4547C29.5547 18.9908 28.8184 18.2544 28.8184 17.3544V14.0817C28.8184 13.1817 29.5547 12.4454 30.4547 12.4454H33.7275V9.17263C33.7275 8.27263 34.4638 7.53626 35.3638 7.53626Z" stroke="#8F583B" stroke-miterlimit="22.926" stroke-linecap="round" stroke-linejoin="round"/>
<path d="M37.0002 30.4458C45.1117 30.4458 51.7275 23.83 51.7275 15.7185C51.7275 7.60707 45.1117 0.991254 37.0002 0.991254C28.8888 0.991254 22.2729 7.60707 22.2729 15.7185C22.2729 23.83 28.8888 30.4458 37.0002 30.4458Z" stroke="#8F583B" stroke-miterlimit="22.926" stroke-linecap="round" stroke-linejoin="round"/>
<path d="M22.3619 18.9907H2.63623V12.4453H22.3619M51.699 12.4453H71.3635V18.9907H51.699" stroke="#8F583B" stroke-miterlimit="22.926" stroke-linecap="round" stroke-linejoin="round"/>
<path d="M1 81.5H73V74.9545H1V81.5Z" stroke="#8F583B" stroke-miterlimit="22.926" stroke-linecap="round" stroke-linejoin="round"/>
<path d="M2.63623 73.3184V68.4093H71.3635V73.3184" stroke="#8F583B" stroke-miterlimit="22.926" stroke-linecap="round" stroke-linejoin="round"/>
<path d="M5.90918 26.9783V19.7685M5.90918 67.6318V41.7056" stroke="#8F583B" stroke-miterlimit="22.926" stroke-linecap="round" stroke-linejoin="round"/>
<path d="M68.0908 19.7685V67.6318" stroke="#8F583B" stroke-miterlimit="22.926" stroke-linecap="round" stroke-linejoin="round"/>
<path d="M53.3633 66.7725V38.6272C53.3633 37.7272 52.6268 36.991 51.727 36.991H22.2726C21.3728 36.991 20.6362 37.7275 20.6362 38.6272V66.7725" stroke="#8F583B" stroke-miterlimit="22.926" stroke-linecap="round" stroke-linejoin="round"/>
<path d="M37 38.6273V66.7725" stroke="#8F583B" stroke-miterlimit="22.926" stroke-linecap="round" stroke-linejoin="round"/>
<path d="M30.4546 51.0637V54.3364" stroke="#8F583B" stroke-miterlimit="22.926" stroke-linecap="round" stroke-linejoin="round"/>
<path d="M43.5459 51.0637V54.3364" stroke="#8F583B" stroke-miterlimit="22.926" stroke-linecap="round" stroke-linejoin="round"/>
<path d="M5.90918 34.3407V34.3423" stroke="#8F583B" stroke-miterlimit="2.613" stroke-linecap="round" stroke-linejoin="round"/>
</svg>
