<svg width="82" height="81" viewBox="0 0 82 81" fill="none" xmlns="http://www.w3.org/2000/svg">
<path d="M39.6775 34.8494C37.6055 43.4365 30.0737 50.4546 20.5652 50.4546C11.337 50.4546 3.67143 43.5754 1.56587 34.8494C-1.01621 24.1564 5.67094 14.5566 12.8552 7.33648C15.264 4.91556 17.8203 2.57 20.5652 0.529329C20.5822 0.515719 20.6011 0.507091 20.6215 0.500286C20.6421 0.507091 20.6612 0.515719 20.6781 0.529329C23.4228 2.57 25.9794 4.91556 28.3882 7.33648C35.5724 14.5566 42.2596 24.1564 39.6775 34.8494Z" stroke="#8F583B" stroke-miterlimit="10" stroke-linecap="round" stroke-linejoin="round"/>
<path d="M20.5654 19.9286V80.5005" stroke="#8F583B" stroke-miterlimit="10" stroke-linecap="round" stroke-linejoin="round"/>
<path d="M20.5654 38.6572L11.897 29.9888" stroke="#8F583B" stroke-miterlimit="10" stroke-linecap="round" stroke-linejoin="round"/>
<path d="M20.5654 30.3584L29.2338 21.69" stroke="#8F583B" stroke-miterlimit="10" stroke-linecap="round" stroke-linejoin="round"/>
<path d="M40.5039 69.4146H81.0003" stroke="#8F583B" stroke-miterlimit="10" stroke-linecap="round" stroke-linejoin="round"/>
<path d="M40.5039 59.4561H81.0003V49.4975H40.5039V59.4561Z" stroke="#8F583B" stroke-miterlimit="10" stroke-linecap="round" stroke-linejoin="round"/>
<path d="M45.4834 59.4563V80.5005" stroke="#8F583B" stroke-miterlimit="10" stroke-linecap="round" stroke-linejoin="round"/>
<path d="M76.021 59.4563V80.5005" stroke="#8F583B" stroke-miterlimit="10" stroke-linecap="round" stroke-linejoin="round"/>
<path d="M1 80.5005H81.0002" stroke="#8F583B" stroke-miterlimit="10" stroke-linecap="round" stroke-linejoin="round"/>
</svg>
