<svg width="53" height="91" viewBox="0 0 53 91" fill="none" xmlns="http://www.w3.org/2000/svg">
<path d="M52.35 59.7127V19.8787C52.35 13.6229 47.2787 8.55148 41.0228 8.55148H36.1144V3.69701C36.1144 2.20748 34.9069 1 33.4174 1H19.9327C18.4432 1 17.2357 2.20748 17.2357 3.69701V8.55148H12.3272C6.07138 8.55148 1 13.6229 1 19.8787V78.7802C1 85.036 6.07138 90.1074 12.3272 90.1074H41.0228C47.2787 90.1074 52.35 85.036 52.35 78.7802" stroke="#2CD5C4" stroke-miterlimit="10" stroke-linecap="round" stroke-linejoin="round"/>
<path d="M20.6714 69.0293C21.0143 69.0279 21.3703 68.8874 21.5913 68.6709L39.395 48.3027V48.3018C40.6681 46.8301 39.6346 44.5431 37.6968 44.543H28.0542L28.5278 43.7793L34.9624 33.4043H22.7534L14.1968 48.6611C12.9666 50.8544 14.5574 53.5485 17.105 53.5488H25.4019L25.1606 54.2188L20.0874 68.2812L20.0796 68.3008L20.0708 68.3193L20.0366 68.4043C20.0275 68.4303 20.0204 68.4544 20.0151 68.4766L20.0005 68.5869V68.5879C19.9999 68.7228 20.0514 68.8143 20.1431 68.8848C20.2209 68.9445 20.3407 68.9966 20.4995 69.0186L20.6714 69.0293Z" stroke="#2CD5C4"/>
</svg>
