<svg width="85" height="85" viewBox="0 0 85 85" fill="none" xmlns="http://www.w3.org/2000/svg">
<path d="M19.6882 70.6748H1" stroke="#2CD5C4" stroke-miterlimit="10" stroke-linecap="round" stroke-linejoin="round"/>
<path d="M84.4807 70.6748H25.5674" stroke="#2CD5C4" stroke-miterlimit="10" stroke-linecap="round" stroke-linejoin="round"/>
<path d="M28.8271 84.0098H56.654V70.6742H28.8271V84.0098Z" stroke="#2CD5C4" stroke-miterlimit="10" stroke-linecap="round" stroke-linejoin="round"/>
<path d="M1 57.3379H26.7043" stroke="#2CD5C4" stroke-miterlimit="10" stroke-linecap="round" stroke-linejoin="round"/>
<path d="M84.4801 57.3379H31.5615" stroke="#2CD5C4" stroke-miterlimit="10" stroke-linecap="round" stroke-linejoin="round"/>
<path d="M36.2549 43.9634L84.4686 44.043" stroke="#2CD5C4" stroke-miterlimit="10" stroke-linecap="round" stroke-linejoin="round"/>
<path d="M56.6543 57.3379V44.0023" stroke="#2CD5C4" stroke-miterlimit="10" stroke-linecap="round" stroke-linejoin="round"/>
<path d="M42.7402 70.6738H70.5671V57.3381H42.7402V70.6738Z" stroke="#2CD5C4" stroke-miterlimit="10" stroke-linecap="round" stroke-linejoin="round"/>
<path d="M42.7393 70.6738V57.3381" stroke="#2CD5C4" stroke-miterlimit="10" stroke-linecap="round" stroke-linejoin="round"/>
<path d="M14.915 57.3381V70.6738" stroke="#2CD5C4" stroke-miterlimit="10" stroke-linecap="round" stroke-linejoin="round"/>
<path d="M70.5654 57.3381V70.6738" stroke="#2CD5C4" stroke-miterlimit="10" stroke-linecap="round" stroke-linejoin="round"/>
<path d="M14.9131 70.6738V57.3381" stroke="#2CD5C4" stroke-miterlimit="10" stroke-linecap="round" stroke-linejoin="round"/>
<path d="M70.5654 30.6672V44.0029" stroke="#2CD5C4" stroke-miterlimit="10" stroke-linecap="round" stroke-linejoin="round"/>
<path d="M84.4805 53.6108V82.666C84.4805 83.4084 83.8791 84.0098 83.1367 84.0098H2.34375C1.60133 84.0098 1 83.4084 1 82.666V45.3469C1 44.6045 1.60133 44.0031 2.34375 44.0031H8.98691" stroke="#2CD5C4" stroke-miterlimit="10" stroke-linecap="round" stroke-linejoin="round"/>
<path d="M66.4824 30.6675H83.1365C83.8789 30.6675 84.4803 31.2688 84.4803 32.0112V47.7314" stroke="#2CD5C4" stroke-miterlimit="10" stroke-linecap="round" stroke-linejoin="round"/>
<path d="M42.7295 43.9736L42.7493 31.9823C42.7505 31.2399 43.3528 30.6396 44.0952 30.6409L47.3673 30.6462" stroke="#2CD5C4" stroke-miterlimit="10" stroke-linecap="round" stroke-linejoin="round"/>
<path d="M11.3399 40.7116H33.9137C35.2129 40.7116 36.2663 41.765 36.2663 43.0642V44.6418C36.2663 45.9412 35.2129 46.9943 33.9137 46.9943C32.6143 46.9943 31.561 48.0477 31.561 49.3469V59.5354C31.561 60.8474 30.5531 61.9798 29.2425 62.0376C27.8514 62.0989 26.7043 60.9893 26.7043 59.6116V50.1733C26.7043 48.4177 25.2809 46.9943 23.5253 46.9943H22.4223C20.6667 46.9943 19.2433 48.4177 19.2433 50.1733C19.2433 51.4851 18.2355 52.6176 16.9248 52.6755C15.5337 52.7367 14.3867 51.6271 14.3867 50.2494V49.3469C14.3867 48.0477 13.3333 46.9943 12.0339 46.9943H11.3399C10.0406 46.9943 8.9873 45.9412 8.9873 44.6418V43.0642C8.9873 41.765 10.0406 40.7116 11.3399 40.7116Z" stroke="#2CD5C4" stroke-miterlimit="10" stroke-linecap="round" stroke-linejoin="round"/>
<path d="M67.1269 17.374L70.7735 21.0206C71.6268 21.8756 71.741 23.2193 71.0457 24.2053L64.594 33.3394C64.1203 34.0113 63.3443 34.4043 62.5229 34.3892L49.8077 34.1574C48.474 34.1322 47.399 33.0572 47.3738 31.7236L47.142 19.0082C47.1269 18.187 47.52 17.4109 48.1918 16.9373L57.326 10.4873C58.3119 9.7902 59.6574 9.9061 60.5107 10.7594L64.1573 14.406" stroke="#2CD5C4" stroke-miterlimit="10" stroke-linecap="round" stroke-linejoin="round"/>
<path d="M67.1269 17.374L70.7735 21.0206C71.6268 21.8756 71.741 23.2193 71.0457 24.2053L64.594 33.3394C64.1203 34.0113 63.3443 34.4043 62.5229 34.3892L49.8077 34.1574C48.474 34.1322 47.399 33.0572 47.3738 31.7236L47.142 19.0082C47.1269 18.187 47.52 17.4109 48.1918 16.9373L57.326 10.4873C58.3119 9.7902 59.6574 9.9061 60.5107 10.7594L64.1573 14.406" stroke="#2CD5C4" stroke-miterlimit="10" stroke-linecap="round" stroke-linejoin="round"/>
<path d="M71.9871 12.5166L62.5825 21.9193C61.7628 22.7391 60.4325 22.7391 59.6128 21.9193C58.7931 21.0998 58.7931 19.7695 59.6128 18.9498L69.0174 9.54688" stroke="#2CD5C4" stroke-miterlimit="10" stroke-linecap="round" stroke-linejoin="round"/>
<path d="M72.3086 12.8391L68.6267 9.15724C68.4955 9.02605 68.4955 8.8134 68.6267 8.68222L75.9186 1.39036C77.0665 0.242295 78.9276 0.242295 80.0756 1.39036C81.2235 2.53826 81.2235 4.39935 80.0756 5.54725L72.7838 12.8391C72.6524 12.9703 72.4398 12.9703 72.3086 12.8391Z" stroke="#2CD5C4" stroke-miterlimit="10" stroke-linecap="round" stroke-linejoin="round"/>
</svg>
