<svg width="109" height="80" viewBox="0 0 109 80" fill="none" xmlns="http://www.w3.org/2000/svg">
<path d="M1 34.6847C30.4807 19.1191 74.9687 7.57227 108.375 7.57227" stroke="#2CD5C4" stroke-miterlimit="10" stroke-linecap="round" stroke-linejoin="round"/>
<path d="M75.6384 10.5506C54.6491 4.67869 32.5843 1.09082 13.9629 1.09082" stroke="#2CD5C4" stroke-miterlimit="10" stroke-linecap="round" stroke-linejoin="round"/>
<path d="M16.123 17.1357V27.5835" stroke="#2CD5C4" stroke-miterlimit="10" stroke-linecap="round" stroke-linejoin="round"/>
<path d="M16.123 1.09082V10.6552" stroke="#2CD5C4" stroke-miterlimit="10" stroke-linecap="round" stroke-linejoin="round"/>
<path d="M16.123 43.3262V78.74" stroke="#2CD5C4" stroke-miterlimit="10" stroke-linecap="round" stroke-linejoin="round"/>
<path d="M22.6045 43.3262V78.74" stroke="#2CD5C4" stroke-miterlimit="10" stroke-linecap="round" stroke-linejoin="round"/>
<path d="M106.215 61.0537V78.7407" stroke="#2CD5C4" stroke-miterlimit="10" stroke-linecap="round" stroke-linejoin="round"/>
<path d="M106.215 7.57227V39.4412" stroke="#2CD5C4" stroke-miterlimit="10" stroke-linecap="round" stroke-linejoin="round"/>
<path d="M93.251 8.27539V53.4869" stroke="#2CD5C4" stroke-miterlimit="10" stroke-linecap="round" stroke-linejoin="round"/>
<path d="M80.2881 9.81738V53.4869" stroke="#2CD5C4" stroke-miterlimit="10" stroke-linecap="round" stroke-linejoin="round"/>
<path d="M67.3262 12.4258V42.877" stroke="#2CD5C4" stroke-miterlimit="10" stroke-linecap="round" stroke-linejoin="round"/>
<path d="M54.3633 15.002V78.7404" stroke="#2CD5C4" stroke-miterlimit="10" stroke-linecap="round" stroke-linejoin="round"/>
<path d="M42.0488 43.3262V78.74H108.375" stroke="#2CD5C4" stroke-miterlimit="10" stroke-linecap="round" stroke-linejoin="round"/>
<path d="M1 78.7402H35.5673" stroke="#2CD5C4" stroke-miterlimit="10" stroke-linecap="round" stroke-linejoin="round"/>
<path d="M13.9629 43.3262H44.2093" stroke="#2CD5C4" stroke-miterlimit="10" stroke-linecap="round" stroke-linejoin="round"/>
<path d="M98.2161 78.7403C98.2161 78.7403 102.398 72.5743 105.523 62.9091C108.015 55.2012 109.543 47.486 107.157 46.0581C104.883 44.6975 97.9059 49.5114 93.2512 56.656C93.2512 56.6548 93.2512 56.6535 93.2512 56.6519C93.2512 47.6446 89.5149 39.1514 86.7346 39.1514C83.9543 39.1514 80.218 47.6446 80.218 56.6519V56.6524C75.8031 51.2476 70.4706 47.9434 68.5381 49.1001C66.1523 50.5279 67.3155 59.0466 70.0035 66.2563C70.1356 66.6101 70.2762 66.9677 70.4244 67.3266C67.8491 65.5329 62.96 64.1654 61.5633 65.5621C59.9697 67.1557 62.3689 73.7323 67.3259 78.7403" stroke="#2CD5C4" stroke-miterlimit="10" stroke-linecap="round" stroke-linejoin="round"/>
<path d="M3.16016 34.6846V78.7402" stroke="#2CD5C4" stroke-miterlimit="10" stroke-linecap="round" stroke-linejoin="round"/>
</svg>
