<svg width="54" height="45" viewBox="0 0 54 45" fill="none" xmlns="http://www.w3.org/2000/svg">
<path d="M31.8611 31.2719L32.442 31.7458C33.1968 32.3967 34.1813 32.4765 34.6038 32.4L37.5781 31.8653L39.8888 32.3297C40.8618 32.5562 41.7697 32.1683 42.1083 31.9051L44.4934 30.043L46.7559 29.3795C47.7215 29.1257 48.3453 28.3615 48.5225 27.9694L49.7732 25.2089L51.4664 23.5702C52.2035 22.894 52.4016 21.9284 52.3775 21.4965L52.2066 18.4697L52.9457 16.2282C53.2854 15.2867 53.0139 14.339 52.7906 13.9689L51.2337 11.3699L50.8521 9.04032C50.7179 8.04958 50.0322 7.33666 49.6663 7.1102L47.0862 5.53549L45.6645 3.64929C45.0868 2.83583 44.1506 2.52131 43.7229 2.49405L40.7055 2.30114L38.572 1.29456C37.6819 0.842804 36.71 1.00111 36.319 1.17609L33.5554 2.41123L31.2006 2.51187C30.2047 2.5276 29.4152 3.11985 29.15 3.45964L27.2785 5.83848L25.2394 7.02518C24.3619 7.5022 23.9404 8.3945 23.8607 8.81691L23.3072 11.7976L22.0512 13.798C21.4976 14.6294 21.5374 15.617 21.6633 16.0269L22.5523 18.9226L22.3688 21.2794C22.2619 22.2734 22.7547 23.1299 23.0597 23.435L25.1912 25.5853L25.2027 25.6126" stroke="white" stroke-miterlimit="10" stroke-linecap="round" stroke-linejoin="round"/>
<path d="M18.0918 41.9528L25.863 43.928C26.8198 44.2277 28.5073 44.5091 30.4791 44.081L48.5587 40.164C51.7166 39.4823 51.6892 34.9111 48.1185 35.5134L36.1164 37.3572C34.6215 37.5865 33.4567 37.1707 31.9649 36.9383L24.4384 35.2505C21.9621 34.4586 22.9251 31.3856 25.0895 31.7128C26.5813 31.8992 27.2661 31.9298 28.9658 32.101C33.4383 32.5567 33.8267 27.3557 29.9288 26.4047L26.6944 25.8115C23.7413 25.2703 21.5921 25.674 17.0647 26.6983L8.38867 28.6582M8.38867 39.4883L14.4723 41.0325" stroke="white" stroke-miterlimit="10" stroke-linecap="round" stroke-linejoin="round"/>
<path d="M7.10804 26.4542H2.2778C1.57474 26.4542 1 27.0289 1 27.7353V40.4123C1 41.1186 1.57474 41.6934 2.2778 41.6934H7.10804C7.81121 41.6934 8.38899 41.1186 8.38899 40.4123V27.7353C8.38899 27.0289 7.81121 26.4542 7.10804 26.4542Z" stroke="white" stroke-miterlimit="10" stroke-linecap="round" stroke-linejoin="round"/>
<path d="M34.0078 22.1514L41.4641 10.0004" stroke="white" stroke-miterlimit="10" stroke-linecap="round" stroke-linejoin="round"/>
<path d="M32.9011 14.9873C34.2371 14.9873 35.3284 13.8957 35.3284 12.5595C35.3284 11.2203 34.2371 10.1318 32.9011 10.1318C31.5622 10.1318 30.4707 11.2203 30.4707 12.5595C30.4707 13.8957 31.5622 14.9873 32.9011 14.9873Z" stroke="white" stroke-miterlimit="10" stroke-linecap="round" stroke-linejoin="round"/>
<path d="M42.57 22.0205C43.9089 22.0205 45.0003 20.929 45.0003 19.5928C45.0003 18.2535 43.9089 17.1619 42.57 17.1619C41.234 17.1619 40.1426 18.2535 40.1426 19.5928C40.1426 20.929 41.234 22.0205 42.57 22.0205Z" stroke="white" stroke-miterlimit="10" stroke-linecap="round" stroke-linejoin="round"/>
</svg>
