<svg width="90" height="90" viewBox="0 0 90 90" fill="none" xmlns="http://www.w3.org/2000/svg">
<path d="M39.5146 28.3865H39.523V39.3409C39.523 42.3659 41.9754 44.818 45.0002 44.818H75.777C76.5394 44.818 77.2969 44.8646 78.0458 44.9561" stroke="#2CD5C4" stroke-miterlimit="10" stroke-linecap="round" stroke-linejoin="round"/>
<path d="M11.9543 11.9546C5.90444 11.9546 1 16.859 1 22.9089C1 28.9588 5.90444 33.8633 11.9543 33.8633" stroke="#2CD5C4" stroke-miterlimit="10" stroke-linecap="round" stroke-linejoin="round"/>
<path d="M89.0002 50.2949V11.9547C89.0002 5.90482 84.0957 1.00038 78.0458 1.00038H45.0002C41.9754 1.00038 39.523 3.45251 39.523 6.47755V17.4319H39.5146" stroke="#2CD5C4" stroke-miterlimit="10" stroke-linecap="round" stroke-linejoin="round"/>
<path d="M11.9546 33.8633C22.9089 33.8633 23.0915 28.3861 39.523 28.3861" stroke="#2CD5C4" stroke-miterlimit="10" stroke-linecap="round" stroke-linejoin="round"/>
<path d="M11.9546 11.9545C22.9089 11.9545 23.0915 17.4316 39.523 17.4316" stroke="#2CD5C4" stroke-miterlimit="10" stroke-linecap="round" stroke-linejoin="round"/>
<path d="M56.1367 1.00001V44.8174" stroke="#2CD5C4" stroke-miterlimit="10" stroke-linecap="round" stroke-linejoin="round"/>
<path d="M88.9998 83.5228C88.9998 86.5477 86.5474 89 83.5226 89C80.4977 89 78.0454 86.5477 78.0454 83.5228C78.0454 80.498 83.5226 72.5685 83.5226 72.5685C83.5226 72.5685 88.9998 80.498 88.9998 83.5228Z" stroke="#2CD5C4" stroke-miterlimit="10" stroke-linecap="round" stroke-linejoin="round"/>
<path d="M67.0913 1.00023V15.1631C67.0913 20.1227 69.0614 24.8791 72.5685 28.3861C76.0755 31.8931 78.0457 36.6495 78.0457 41.6091V56.1371C78.0457 59.1621 80.498 61.6143 83.5228 61.6143C86.5477 61.6143 89 59.1621 89 56.1371V39.3404" stroke="#2CD5C4" stroke-miterlimit="10" stroke-linecap="round" stroke-linejoin="round"/>
<path d="M11.9541 25.1465C13.1903 25.1465 14.1932 24.1444 14.1934 22.9082C14.1934 21.6719 13.1904 20.6689 11.9541 20.6689C10.718 20.6691 9.71582 21.672 9.71582 22.9082C9.71598 24.1442 10.7181 25.1463 11.9541 25.1465Z" stroke="#2CD5C4"/>
</svg>
