<svg width="77" height="78" viewBox="0 0 77 78" fill="none" xmlns="http://www.w3.org/2000/svg">
<path d="M63.3717 40.293L36.6724 32.888" stroke="#8F583B" stroke-miterlimit="10" stroke-linecap="round" stroke-linejoin="round"/>
<mask id="mask0_2838_2922" style="mask-type:luminance" maskUnits="userSpaceOnUse" x="0" y="0" width="77" height="78">
<path d="M76.5 77.0005V1.00049H0.5V77.0005H76.5Z" fill="white" stroke="white"/>
</mask>
<g mask="url(#mask0_2838_2922)">
<path d="M61.7904 45.9673L68.2037 22.9467C70.6859 14.0369 65.4093 4.71774 56.4797 2.24096C47.5457 -0.235974 38.2102 5.02469 35.7235 13.9388L32.8608 24.2257M40.2438 69.8277C48.3703 70.821 56.2831 65.7351 58.539 57.6396L60.3677 51.0702" stroke="#8F583B" stroke-miterlimit="10" stroke-linecap="round" stroke-linejoin="round"/>
<path d="M33.1259 43.8742C24.4656 40.4339 14.6472 44.6501 11.1991 53.2913C7.75114 61.9369 11.9768 71.7335 20.6372 75.1736C29.2978 78.614 39.1162 74.3978 42.5642 65.7565C46.0164 57.1111 41.7907 47.3187 33.1259 43.8742Z" stroke="#8F583B" stroke-miterlimit="10" stroke-linecap="round" stroke-linejoin="round"/>
<path d="M10.3188 56.2582L41.1626 68.5103M43.4442 62.8064L12.5962 50.55" stroke="#8F583B" stroke-miterlimit="10" stroke-linecap="round" stroke-linejoin="round"/>
<path d="M32.7927 43.7463C35.2195 41.197 36.7107 37.7481 36.7107 33.9497C36.7107 26.0886 30.3231 19.7154 22.4445 19.7154C18.894 19.7154 15.6468 21.0113 13.1475 23.1557M9.77646 27.4017C8.75952 29.3626 8.18262 31.5879 8.18262 33.9497C8.18262 39.4961 11.3572 44.2963 15.9972 46.6494" stroke="#8F583B" stroke-miterlimit="10" stroke-linecap="round" stroke-linejoin="round"/>
<path d="M26.0834 32.5601H26.0547" stroke="#8F583B" stroke-miterlimit="10" stroke-linecap="round" stroke-linejoin="round"/>
<path d="M22.9223 38.6943H22.8936" stroke="#8F583B" stroke-miterlimit="10" stroke-linecap="round" stroke-linejoin="round"/>
<path d="M16.8674 34.1929H16.8345" stroke="#8F583B" stroke-miterlimit="10" stroke-linecap="round" stroke-linejoin="round"/>
<path d="M20.9995 26.8643H20.9707" stroke="#8F583B" stroke-miterlimit="10" stroke-linecap="round" stroke-linejoin="round"/>
</g>
</svg>
