<svg width="54" height="53" viewBox="0 0 54 53" fill="none" xmlns="http://www.w3.org/2000/svg">
<path d="M11.4841 31.5137L2.76133 17.2018C1.64897 15.5369 1 13.5366 1 11.3842C1 5.59382 5.69373 0.900084 11.4841 0.900084C17.2745 0.900084 21.9682 5.59382 21.9682 11.3842C21.9682 13.5366 21.3192 15.5369 20.2069 17.2018L11.4841 31.5137Z" stroke="white" stroke-miterlimit="10" stroke-linecap="round" stroke-linejoin="round"/>
<path d="M15.6778 11.3835C15.6778 13.6994 13.8001 15.5771 11.4842 15.5771C9.16823 15.5771 7.29053 13.6994 7.29053 11.3835C7.29053 9.06757 9.16823 7.18986 11.4842 7.18986C13.8001 7.18986 15.6778 9.06757 15.6778 11.3835Z" stroke="white" stroke-miterlimit="10" stroke-linecap="round" stroke-linejoin="round"/>
<path d="M42.0978 48.2878C43.2563 48.2878 44.1946 49.2272 44.1946 50.3846C44.1946 51.5431 43.2563 52.4814 42.0978 52.4814C40.9393 52.4814 40.001 51.5431 40.001 50.3846C40.001 49.2272 40.9393 48.2878 42.0978 48.2878Z" stroke="white" stroke-miterlimit="10" stroke-linecap="round" stroke-linejoin="round"/>
<path d="M42.0974 48.2881L33.3746 34.6053C32.2622 32.9404 31.6133 30.94 31.6133 28.7876C31.6133 22.9973 36.307 18.3035 42.0974 18.3035C47.8878 18.3035 52.5815 22.9973 52.5815 28.7876C52.5815 30.94 51.9325 32.9404 50.8202 34.6053L42.0974 48.2881Z" stroke="white" stroke-miterlimit="10" stroke-linecap="round" stroke-linejoin="round"/>
<path d="M46.2916 28.7878C46.2916 31.1037 44.4139 32.9814 42.0979 32.9814C39.782 32.9814 37.9043 31.1037 37.9043 28.7878C37.9043 26.4719 39.782 24.5942 42.0979 24.5942C44.4139 24.5942 46.2916 26.4719 46.2916 28.7878Z" stroke="white" stroke-miterlimit="10" stroke-linecap="round" stroke-linejoin="round"/>
<path d="M13.5813 33.6092C13.5813 34.7677 12.643 35.7061 11.4845 35.7061C10.326 35.7061 9.3877 34.7677 9.3877 33.6092C9.3877 32.4518 10.326 31.5124 11.4845 31.5124C12.643 31.5124 13.5813 32.4518 13.5813 33.6092Z" stroke="white" stroke-miterlimit="10" stroke-linecap="round" stroke-linejoin="round"/>
<path d="M25.2188 50.9336C25.5215 50.9334 25.7666 50.6875 25.7666 50.3848C25.7664 50.0822 25.5213 49.8371 25.2188 49.8369C24.916 49.8369 24.6701 50.0821 24.6699 50.3848C24.6699 50.6877 24.9159 50.9336 25.2188 50.9336Z" fill="black" stroke="white"/>
<path d="M13.581 33.6102H22.5973C24.9133 33.6102 26.791 35.4879 26.791 37.8038C26.791 40.1198 24.9133 41.9975 22.5973 41.9975H10.0164C7.70046 41.9975 5.82275 43.8752 5.82275 46.1911C5.82275 48.5071 7.70046 50.3848 10.0164 50.3848H20.5005" stroke="white" stroke-miterlimit="10" stroke-linecap="round" stroke-linejoin="round"/>
<path d="M29.936 50.3848H40.0008" stroke="white" stroke-miterlimit="10" stroke-linecap="round" stroke-linejoin="round"/>
</svg>
