<svg width="57" height="69" viewBox="0 0 57 69" fill="none" xmlns="http://www.w3.org/2000/svg">
<path d="M7.02611 59.9707L6.64972 66.6529C6.60454 67.4559 7.24357 68.1319 8.04779 68.1319H14.5198" stroke="#8F583B" stroke-miterlimit="10" stroke-linecap="round" stroke-linejoin="round"/>
<path d="M8.62878 31.5273L7.78809 46.4517" stroke="#8F583B" stroke-miterlimit="10" stroke-linecap="round" stroke-linejoin="round"/>
<path d="M16.4888 18.3784H10.6926C9.94985 18.3784 9.33627 18.9584 9.29449 19.7L8.87891 27.0786" stroke="#8F583B" stroke-miterlimit="10" stroke-linecap="round" stroke-linejoin="round"/>
<path d="M49.0418 46.4517L47.535 19.7C47.4932 18.9584 46.8796 18.3784 46.1369 18.3784H31.0078" stroke="#8F583B" stroke-miterlimit="10" stroke-linecap="round" stroke-linejoin="round"/>
<path d="M40.0518 68.1316H48.7815C49.5858 68.1316 50.2247 67.4555 50.1796 66.6525L49.8106 60.104" stroke="#8F583B" stroke-miterlimit="10" stroke-linecap="round" stroke-linejoin="round"/>
<path d="M13.0393 60.916L12.6328 68.1317H35.5841" stroke="#8F583B" stroke-miterlimit="10" stroke-linecap="round" stroke-linejoin="round"/>
<path d="M26.5405 18.3784H15.4355L13.6641 49.8295" stroke="#8F583B" stroke-miterlimit="10" stroke-linecap="round" stroke-linejoin="round"/>
<path d="M38.0196 25.8428C38.0196 26.8828 38.8866 27.7202 39.9371 27.6719C40.8695 27.629 41.6367 26.8618 41.6796 25.9294C41.7083 25.3044 41.4236 24.7444 40.9693 24.3932C40.2653 23.8493 39.8507 23.012 39.8507 22.1225V9.26519C39.8507 4.42459 35.9266 0.500488 31.086 0.500488C26.2454 0.500488 22.3213 4.42459 22.3213 9.26519V22.1223C22.3213 23.012 22.7359 23.8492 23.4399 24.3931C23.8942 24.7441 24.1791 25.3042 24.1502 25.9293C24.1073 26.8617 23.3401 27.6289 22.4077 27.6717C21.3572 27.7201 20.4902 26.8826 20.4902 25.8427" stroke="#8F583B" stroke-miterlimit="10" stroke-linecap="round" stroke-linejoin="round"/>
<path d="M34.0187 18.3785V9.26519C34.0187 4.42459 30.0946 0.500488 25.254 0.500488C20.4134 0.500488 16.4893 4.42459 16.4893 9.26519V18.3787" stroke="#8F583B" stroke-miterlimit="10" stroke-linecap="round" stroke-linejoin="round"/>
<path d="M9.02353 59.1241L5.20543 60.7417C4.42053 61.0743 3.56378 60.4518 3.63753 59.6026L3.9961 55.4715L1.27779 52.34C0.718913 51.6963 1.04618 50.6891 1.87667 50.4969L5.91644 49.5612L8.05465 46.0083C8.49418 45.2778 9.55315 45.2778 9.99268 46.0083L12.1309 49.5612L16.1707 50.4969C17.0011 50.6891 17.3284 51.6964 16.7695 52.34L14.0512 55.4715L14.4098 59.6026C14.4836 60.4518 13.6268 61.0743 12.8419 60.7417L9.02353 59.1241Z" stroke="#8F583B" stroke-miterlimit="10" stroke-linecap="round" stroke-linejoin="round"/>
<path d="M28.4142 54.8352L24.5961 56.4528C23.8112 56.7853 22.9544 56.1629 23.0282 55.3135L23.3867 51.1824L20.6684 48.051C20.1095 47.4072 20.4368 46.4001 21.2673 46.2078L25.3071 45.2721L27.4453 41.7192C27.8848 40.9888 28.9438 40.9888 29.3833 41.7192L31.5215 45.2721L35.5613 46.2078C36.3918 46.4002 36.719 47.4073 36.1602 48.051L33.4419 51.1824L33.8004 55.3135C33.8742 56.1628 33.0174 56.7852 32.2325 56.4528L28.4142 54.8352Z" stroke="#8F583B" stroke-miterlimit="10" stroke-linecap="round" stroke-linejoin="round"/>
<path d="M47.8058 59.1241L43.9877 60.7417C43.2028 61.0743 42.346 60.4518 42.4198 59.6026L42.7783 55.4715L40.06 52.34C39.5011 51.6963 39.8284 50.6891 40.6589 50.4969L44.6987 49.5612L46.8369 46.0083C47.2764 45.2778 48.3354 45.2778 48.7749 46.0083L50.9131 49.5612L54.9529 50.4969C55.7834 50.6891 56.1106 51.6964 55.5518 52.34L52.8335 55.4715L53.192 59.6026C53.2658 60.4518 52.409 61.0743 51.6241 60.7417L47.8058 59.1241Z" stroke="#8F583B" stroke-miterlimit="10" stroke-linecap="round" stroke-linejoin="round"/>
</svg>
